<svg viewBox="0 0 754 114" fill="none" xmlns="http://www.w3.org/2000/svg">
<g filter="url(#filter0_i_0_1)">
<path d="M43.31 97.582C45.0032 97.582 46.2063 97.2256 46.9192 96.5127C47.7213 95.7106 48.1223 94.463 48.1223 92.7698V45.7165L56.0091 60.287C56.8111 61.802 57.7468 62.9159 58.8162 63.6288C59.9747 64.2527 61.4006 64.5646 63.0938 64.5646H68.4408C70.134 64.5646 71.5153 64.2527 72.5846 63.6288C73.7432 62.9159 74.7234 61.802 75.5255 60.287L83.4123 45.7165V92.7698C83.4123 94.463 83.7687 95.7106 84.4816 96.5127C85.2837 97.2256 86.5313 97.582 88.2245 97.582H108.81C110.504 97.582 111.707 97.2256 112.42 96.5127C113.222 95.7106 113.623 94.463 113.623 92.7698V6.14901C113.623 4.4558 113.222 3.25274 112.42 2.53981C111.707 1.73776 110.504 1.33674 108.81 1.33674H87.1551C85.7293 1.33674 84.5262 1.64864 83.5459 2.27245C82.6548 2.89627 81.8082 3.9211 81.0061 5.34696L69.1091 27.1358C68.6635 27.9379 68.2625 28.5171 67.9061 28.8736C67.6387 29.2301 67.2377 29.4083 66.703 29.4083H65.4999C64.9652 29.4083 64.5197 29.2301 64.1632 28.8736C63.8958 28.5171 63.5394 27.9379 63.0938 27.1358L51.0631 5.34696C50.2611 3.9211 49.3699 2.89627 48.3897 2.27245C47.4985 1.64864 46.34 1.33674 44.9141 1.33674H23.3926C21.6994 1.33674 20.4518 1.73776 19.6497 2.53981C18.9368 3.25274 18.5803 4.4558 18.5803 6.14901V92.7698C18.5803 94.463 18.9368 95.7106 19.6497 96.5127C20.4518 97.2256 21.6994 97.582 23.3926 97.582H43.31Z" fill="url(#gradient)"/>
<path d="M47.588 97.7157L30.2103 112.153C29.8539 112.509 29.2746 112.821 28.4726 113.088C27.7596 113.356 26.9576 113.489 26.0664 113.489H6.14901C4.01022 113.489 2.45069 112.999 1.47041 112.019C0.490138 111.039 0 109.479 0 107.34V20.7195C0 19.561 0.133674 18.5807 0.401022 17.7786C0.757486 16.9766 1.24762 16.3082 1.87144 15.7735L19.1154 1.20307C19.561 0.846602 20.1402 0.579252 20.8531 0.401017C21.6552 0.133672 22.5018 0 23.393 0H44.9145C46.6077 0 47.989 0.356462 49.0584 1.06939C50.2169 1.78232 51.2863 2.98538 52.2666 4.67859L61.3564 21.3878L62.5595 19.2491C62.9159 18.6252 63.2724 18.046 63.6288 17.5113C64.0744 16.8875 64.52 16.3973 64.9656 16.0409L82.2095 1.60408C82.9225 1.06939 83.6354 0.668367 84.3483 0.401017C85.1504 0.133672 86.0861 0 87.1555 0H108.811C110.949 0 112.509 0.490137 113.489 1.47041C114.47 2.45069 114.96 4.01022 114.96 6.14901V92.7698C114.96 93.9283 114.781 94.9086 114.425 95.7106C114.158 96.5126 113.712 97.181 113.088 97.7157L95.7106 112.153C95.3541 112.509 94.7749 112.821 93.9729 113.088C93.2599 113.356 92.4579 113.489 91.5667 113.489H70.9809C68.753 113.489 67.1489 112.999 66.1686 112.019C65.2775 111.039 64.8319 109.479 64.8319 107.34V72.0503L56.9451 78.6003C56.2322 79.2241 55.3856 79.7143 54.4053 80.0707C53.5142 80.3381 52.4448 80.4718 51.1972 80.4718H49.4594V92.7698C49.4594 93.9283 49.2812 94.9086 48.9247 95.7106C48.6574 96.5126 48.2118 97.181 47.588 97.7157Z" fill="url(#gradient)"/>
<path d="M172.736 92.7698V74.0554H196.396V92.7698C196.396 94.463 196.797 95.7106 197.599 96.5127C198.49 97.2256 199.827 97.582 201.609 97.582H221.794C223.487 97.582 224.69 97.2256 225.403 96.5127C226.205 95.7106 226.606 94.463 226.606 92.7698V57.4798C226.606 54.8064 226.161 51.7319 225.27 48.2563C224.468 44.7808 223.175 40.726 221.393 36.092L209.763 5.74798C209.229 4.23301 208.382 3.11906 207.224 2.40613C206.154 1.69321 204.773 1.33674 203.08 1.33674H167.121C165.339 1.33674 163.869 1.69321 162.71 2.40613C161.641 3.11906 160.839 4.23301 160.304 5.74798L148.674 36.092C146.892 40.726 145.555 44.7808 144.664 48.2563C143.862 51.7319 143.461 54.8064 143.461 57.4798V92.7698C143.461 94.463 143.818 95.7106 144.531 96.5127C145.333 97.2256 146.58 97.582 148.273 97.582H167.923C169.617 97.582 170.82 97.2256 171.533 96.5127C172.335 95.7106 172.736 94.463 172.736 92.7698Z" fill="url(#gradient)"/>
<path d="M154.824 112.153C154.467 112.509 153.888 112.821 153.086 113.088C152.373 113.356 151.571 113.489 150.68 113.489H131.03C128.891 113.489 127.331 112.999 126.351 112.019C125.371 111.039 124.881 109.479 124.881 107.34V72.0503C124.881 69.2877 125.282 66.1686 126.084 62.6931C126.975 59.1285 128.356 54.94 130.228 50.1278L141.724 19.9174C141.991 19.1154 142.303 18.447 142.659 17.9123C143.105 17.2885 143.551 16.7538 143.996 16.3082L144.13 16.1746L161.24 1.87144C161.953 1.24762 162.8 0.802042 163.78 0.534697C164.76 0.178232 165.874 0 167.122 0H203.08C205.13 0 206.778 0.44558 208.026 1.33674C209.363 2.13878 210.343 3.43096 210.967 5.21328L222.597 35.5573C224.468 40.3696 225.805 44.558 226.607 48.1227C227.498 51.5982 227.943 54.7172 227.943 57.4798V92.7698C227.943 93.9283 227.765 94.9086 227.409 95.7106C227.141 96.5126 226.696 97.181 226.072 97.7157L208.694 112.153C208.338 112.509 207.759 112.821 206.957 113.088C206.244 113.356 205.442 113.489 204.551 113.489H184.366C182.138 113.489 180.489 112.955 179.42 111.885C178.35 110.905 177.816 109.39 177.816 107.34V89.9626H174.073V92.7698C174.073 93.9283 173.895 94.9086 173.538 95.7106C173.271 96.5126 172.825 97.181 172.201 97.7157L154.824 112.153Z" fill="url(#gradient)"/>
<path d="M270.864 79.5361V85.5514H269.527V79.5361C269.527 77.5755 269.572 75.7486 269.661 74.0554C269.839 72.2731 270.463 70.669 271.532 69.2432L287.573 47.3206L271.532 25.6654C270.552 24.2396 269.973 22.68 269.795 20.9868C269.616 19.2045 269.527 17.3331 269.527 15.3725V13.3674H270.864V15.3725C270.864 17.244 270.953 19.0263 271.131 20.7195C271.31 22.4127 271.844 23.8831 272.735 25.1307L288.776 46.7859H304.684L320.19 25.1307C321.081 23.8831 321.616 22.4127 321.794 20.7195C321.972 19.0263 322.061 17.244 322.061 15.3725V13.3674H323.398V15.3725C323.398 17.3331 323.309 19.2045 323.131 20.9868C322.952 22.68 322.373 24.2396 321.393 25.6654L305.619 47.588L321.393 69.2432C322.373 70.669 322.952 72.2731 323.131 74.0554C323.309 75.7486 323.398 77.5755 323.398 79.5361V85.5514H322.061V79.5361C322.061 77.6646 321.972 75.8823 321.794 74.1891C321.616 72.4959 321.081 71.0255 320.19 69.7779L304.55 48.1227H288.509L272.735 69.7779C271.844 70.9364 271.31 72.4068 271.131 74.1891C270.953 75.8823 270.864 77.6646 270.864 79.5361Z" fill="url(#gradient)"/>
<path d="M285.166 92.7698V79.536C285.166 78.6449 285.211 77.7092 285.3 76.7289C285.389 75.7486 285.746 74.8129 286.369 73.9217L292.385 65.5003C292.92 64.6982 293.41 64.119 293.855 63.7625C294.301 63.4061 294.88 63.2278 295.593 63.2278H297.464C298.177 63.2278 298.757 63.4061 299.202 63.7625C299.648 64.119 300.138 64.6982 300.673 65.5003L306.554 73.9217C307.178 74.8129 307.535 75.7486 307.624 76.7289C307.713 77.7092 307.757 78.6449 307.757 79.536V92.7698C307.757 94.463 308.114 95.7106 308.827 96.5127C309.629 97.2256 310.876 97.582 312.57 97.582H332.888C334.581 97.582 335.784 97.2256 336.497 96.5127C337.299 95.7106 337.7 94.463 337.7 92.7698V78.4667C337.7 74.3673 337.344 71.2928 336.631 69.2432C336.007 67.1935 334.67 64.7874 332.621 62.0248L321.793 47.588L332.621 32.8838C334.581 30.1212 335.918 27.7151 336.631 25.6654C337.344 23.6157 337.7 20.5412 337.7 16.4419V6.14901C337.7 4.4558 337.299 3.25274 336.497 2.53981C335.784 1.73776 334.581 1.33674 332.888 1.33674H312.57C310.876 1.33674 309.629 1.73776 308.827 2.53981C308.114 3.25274 307.757 4.4558 307.757 6.14901V15.3725C307.757 16.2637 307.713 17.1994 307.624 18.1797C307.535 19.1599 307.178 20.0957 306.554 20.9868L300.539 29.4083C300.004 30.1212 299.514 30.7005 299.069 31.146C298.623 31.5025 298.044 31.6807 297.331 31.6807H295.727C295.014 31.6807 294.39 31.5025 293.855 31.146C293.41 30.7005 292.964 30.1212 292.518 29.4083L286.637 20.9868C286.013 20.0957 285.657 19.1599 285.567 18.1797C285.478 17.1994 285.434 16.2637 285.434 15.3725V6.14901C285.434 4.4558 285.033 3.25274 284.231 2.53981C283.518 1.73776 282.315 1.33674 280.621 1.33674H260.036C258.342 1.33674 257.095 1.73776 256.293 2.53981C255.58 3.25274 255.223 4.4558 255.223 6.14901V16.4419C255.223 20.5412 255.535 23.6157 256.159 25.6654C256.872 27.7151 258.253 30.1212 260.303 32.8838L271.131 47.4543L260.303 62.0248C258.342 64.7874 257.006 67.1935 256.293 69.2432C255.58 71.2928 255.223 74.3673 255.223 78.4667V92.7698C255.223 94.463 255.58 95.7106 256.293 96.5127C257.095 97.2256 258.342 97.582 260.036 97.582H280.354C282.047 97.582 283.25 97.2256 283.963 96.5127C284.765 95.7106 285.166 94.463 285.166 92.7698Z" fill="url(#gradient)"/>
<path d="M284.632 97.7157L267.254 112.153C266.898 112.509 266.319 112.821 265.517 113.088C264.804 113.356 264.002 113.489 263.111 113.489H242.792C240.653 113.489 239.094 112.999 238.113 112.019C237.133 111.039 236.643 109.479 236.643 107.34V93.0371C236.643 88.6704 237 85.4177 237.712 83.2789C238.425 81.1401 239.851 78.6449 241.99 75.7932L252.283 62.0248L241.99 48.2563C239.851 45.4046 238.425 42.9094 237.712 40.7706C237 38.6318 236.643 35.3791 236.643 31.0124V20.7195C236.643 19.561 236.777 18.5807 237.044 17.7786C237.401 16.9766 237.891 16.3082 238.515 15.7735L255.758 1.20307C256.204 0.846602 256.783 0.579252 257.496 0.401017C258.298 0.133672 259.145 0 260.036 0H280.622C282.761 0 284.32 0.490137 285.3 1.47041C286.281 2.45069 286.771 4.01022 286.771 6.14901V15.3725C286.771 16.1746 286.771 17.0212 286.771 17.9123C286.86 18.7144 287.172 19.4718 287.707 20.1848L289.177 22.3236V20.7195C289.177 19.561 289.311 18.5807 289.578 17.7786C289.934 16.9766 290.425 16.3082 291.048 15.7735L308.292 1.20307C308.738 0.846602 309.317 0.579252 310.03 0.401017C310.832 0.133672 311.679 0 312.57 0H332.888C335.027 0 336.587 0.490137 337.567 1.47041C338.547 2.45069 339.037 4.01022 339.037 6.14901V16.4419C339.037 20.8086 338.681 24.0613 337.968 26.2001C337.255 28.3389 335.829 30.8341 333.69 33.6859L323.398 47.588L333.69 61.2227C335.829 64.0744 337.255 66.5697 337.968 68.7084C338.681 70.8472 339.037 74.1 339.037 78.4667V92.7698C339.037 93.9283 338.859 94.9086 338.503 95.7106C338.235 96.5126 337.79 97.181 337.166 97.7157L319.788 112.153C319.432 112.509 318.853 112.821 318.051 113.088C317.338 113.356 316.536 113.489 315.644 113.489H295.326C293.187 113.489 291.628 112.999 290.647 112.019C289.667 111.039 289.177 109.479 289.177 107.34V94.1065C289.177 93.3045 289.132 92.5024 289.043 91.7004C289.043 90.8983 288.776 90.0963 288.241 89.2943L286.504 86.8881V92.7698C286.504 93.9283 286.325 94.9086 285.969 95.7106C285.701 96.5126 285.256 97.181 284.632 97.7157Z" fill="url(#gradient)"/>
<path d="M417.893 113.489H355.868C353.73 113.489 352.17 112.999 351.19 112.019C350.21 111.039 349.719 109.479 349.719 107.34V20.7195C349.719 19.561 349.853 18.5807 350.121 17.7786C350.477 16.9766 350.967 16.3082 351.591 15.7735L368.835 1.20307C369.28 0.846602 369.86 0.579252 370.573 0.401017C371.375 0.133672 372.221 0 373.112 0H435.137C437.276 0 438.836 0.490137 439.816 1.47041C440.796 2.45069 441.286 4.01022 441.286 6.14901V21.7889C441.286 22.9474 441.108 23.9277 440.751 24.7297C440.484 25.5317 440.039 26.2001 439.415 26.7348L427.919 36.2257C428.81 36.6712 429.434 37.3396 429.79 38.2308C430.236 39.1219 430.459 40.2804 430.459 41.7063V56.0094C430.459 57.1679 430.28 58.1482 429.924 58.9502C429.657 59.7523 429.211 60.4207 428.587 60.9554L416.69 70.9809H435.137C437.276 70.9809 438.836 71.471 439.816 72.4513C440.796 73.4316 441.286 74.9911 441.286 77.1299V92.7698C441.286 93.9283 441.108 94.9086 440.751 95.7106C440.484 96.5126 440.039 97.181 439.415 97.7157L422.037 112.153C421.681 112.509 421.101 112.821 420.299 113.088C419.586 113.356 418.784 113.489 417.893 113.489Z" fill="url(#gradient)"/>
<path d="M435.137 97.582C436.83 97.582 438.033 97.2256 438.746 96.5127C439.548 95.7106 439.949 94.463 439.949 92.7698V77.1299C439.949 75.4367 439.548 74.2336 438.746 73.5207C438.033 72.7187 436.83 72.3177 435.137 72.3177H398.243V60.8217H424.309C426.002 60.8217 427.206 60.4652 427.918 59.7523C428.72 58.9502 429.122 57.7026 429.122 56.0094V41.7063C429.122 40.0131 428.72 38.81 427.918 38.0971C427.206 37.2951 426.002 36.894 424.309 36.894H398.243V26.6011H435.137C436.83 26.6011 438.033 26.2447 438.746 25.5317C439.548 24.7297 439.949 23.4821 439.949 21.7889V6.14901C439.949 4.4558 439.548 3.25274 438.746 2.53981C438.033 1.73776 436.83 1.33674 435.137 1.33674H373.112C371.419 1.33674 370.171 1.73776 369.369 2.53981C368.656 3.25274 368.3 4.4558 368.3 6.14901V92.7698C368.3 94.463 368.656 95.7106 369.369 96.5127C370.171 97.2256 371.419 97.582 373.112 97.582H435.137Z" fill="url(#gradient)"/>
<path d="M427.918 84.2146V85.5514H382.87V13.3674H427.918V14.7041H384.207V48.2563H417.09V49.5931H384.207V84.2146H427.918Z" fill="url(#gradient)"/>
<path d="M486.723 14.4368L535.915 69.7778V13.3674H537.251V85.5514H535.915V71.7829L485.386 15.1051C485.297 15.016 485.163 14.9269 484.985 14.8378C484.896 14.7487 484.807 14.7041 484.717 14.7041C484.628 14.7041 484.539 14.7487 484.45 14.8378C484.45 14.9269 484.45 15.016 484.45 15.1051V85.5514H483.113V14.8378C483.113 14.3031 483.292 13.9021 483.648 13.6347C484.004 13.3674 484.361 13.2337 484.717 13.2337C485.074 13.2337 485.386 13.3228 485.653 13.5011C485.92 13.6793 486.277 13.9912 486.723 14.4368Z" fill="url(#gradient)"/>
<path d="M493.941 97.582C495.634 97.582 496.837 97.2256 497.55 96.5127C498.352 95.7106 498.753 94.463 498.753 92.7698V48.6573L521.611 76.3279V92.7698C521.611 94.463 521.968 95.7106 522.681 96.5127C523.483 97.2256 524.731 97.582 526.424 97.582H546.475C548.168 97.582 549.371 97.2256 550.084 96.5127C550.886 95.7106 551.287 94.463 551.287 92.7698V6.14901C551.287 4.4558 550.886 3.25274 550.084 2.53981C549.371 1.73776 548.168 1.33674 546.475 1.33674H526.424C524.731 1.33674 523.483 1.73776 522.681 2.53981C521.968 3.25274 521.611 4.4558 521.611 6.14901V34.6216L495.679 4.94594C494.52 3.6092 493.317 2.67348 492.069 2.13878C490.911 1.60409 489.485 1.33674 487.792 1.33674H473.89C472.197 1.33674 470.949 1.73776 470.147 2.53981C469.434 3.25274 469.078 4.4558 469.078 6.14901V92.7698C469.078 94.463 469.434 95.7106 470.147 96.5127C470.949 97.2256 472.197 97.582 473.89 97.582H493.941Z" fill="url(#gradient)"/>
<path d="M498.219 97.7157L480.841 112.153C480.485 112.509 479.905 112.821 479.103 113.088C478.39 113.356 477.588 113.489 476.697 113.489H456.646C454.507 113.489 452.948 112.999 451.968 112.019C450.987 111.039 450.497 109.479 450.497 107.34V20.7195C450.497 19.561 450.631 18.5807 450.898 17.7786C451.255 16.9766 451.745 16.3082 452.369 15.7735L469.613 1.20307C470.058 0.846602 470.637 0.579252 471.35 0.401017C472.152 0.133672 472.999 0 473.89 0H487.792C489.753 0 491.401 0.311905 492.738 0.935714C494.075 1.55953 495.412 2.58436 496.748 4.01022L505.972 14.7041L522.146 1.20307C522.592 0.846602 523.171 0.579252 523.884 0.401017C524.686 0.133672 525.533 0 526.424 0H546.475C548.614 0 550.173 0.490137 551.154 1.47041C552.134 2.45069 552.624 4.01022 552.624 6.14901V92.7698C552.624 93.9283 552.446 94.9086 552.089 95.7106C551.822 96.5126 551.377 97.181 550.753 97.7157L533.375 112.153C533.019 112.509 532.439 112.821 531.637 113.088C530.924 113.356 530.122 113.489 529.231 113.489H509.18C507.041 113.489 505.482 112.999 504.501 112.019C503.521 111.039 503.031 109.479 503.031 107.34V91.433L500.09 87.8238V92.7698C500.09 93.9283 499.912 94.9086 499.556 95.7106C499.288 96.5126 498.843 97.181 498.219 97.7157Z" fill="url(#gradient)"/>
<path d="M629.826 113.489H597.209C585.535 113.489 576.891 110.459 571.277 104.399C565.751 98.3395 562.989 90.4973 562.989 80.8728V43.3104C562.989 38.409 563.702 34.176 565.128 30.6113C566.553 26.9576 568.648 23.9276 571.41 21.5215L588.788 6.95105C591.55 4.63403 595.071 2.89627 599.348 1.73776C603.626 0.579255 608.661 0 614.453 0H647.07C649.209 0 650.768 0.490137 651.748 1.47041C652.729 2.45069 653.219 4.01022 653.219 6.14901V22.3236C653.219 23.4821 653.041 24.4623 652.684 25.2644C652.417 26.0664 651.971 26.7348 651.347 27.2695L633.97 41.7063C633.613 42.0628 633.034 42.3747 632.232 42.642C631.519 42.9094 630.717 43.043 629.826 43.043H613.384V65.6339C613.384 67.5054 613.963 68.8421 615.122 69.6442C616.28 70.3571 617.973 70.7136 620.201 70.7136H647.07C649.209 70.7136 650.768 71.2037 651.748 72.184C652.729 73.1643 653.219 74.7238 653.219 76.8626V92.7698C653.219 93.9283 653.041 94.9086 652.684 95.7106C652.417 96.5126 651.971 97.181 651.347 97.7157L633.97 112.153C633.613 112.509 633.034 112.821 632.232 113.088C631.519 113.356 630.717 113.489 629.826 113.489Z" fill="url(#gradient)"/>
<path d="M647.069 97.582C648.763 97.582 649.966 97.2256 650.679 96.5127C651.481 95.7106 651.882 94.463 651.882 92.7698V76.8626C651.882 75.1694 651.481 73.9663 650.679 73.2534C649.966 72.4513 648.763 72.0503 647.069 72.0503H620.201C617.438 72.0503 615.389 71.5602 614.052 70.5799C612.715 69.5105 612.047 67.8618 612.047 65.6339V33.8195C612.047 31.5916 612.715 29.943 614.052 28.8736C615.389 27.7151 617.438 27.1358 620.201 27.1358H647.069C648.763 27.1358 649.966 26.7794 650.679 26.0664C651.481 25.2644 651.882 24.0168 651.882 22.3236V6.14901C651.882 4.4558 651.481 3.25274 650.679 2.53981C649.966 1.73776 648.763 1.33674 647.069 1.33674H614.453C603.313 1.33674 595.026 3.6092 589.59 8.15412C584.243 12.6099 581.569 19.4719 581.569 28.7399V70.3125C581.569 79.5806 584.243 86.4425 589.59 90.8983C595.026 95.3541 603.313 97.582 614.453 97.582H647.069Z" fill="url(#gradient)"/>
<path d="M639.718 84.2146V85.5514H617.395C608.751 85.5514 603.003 84.2146 600.151 81.5412C597.388 78.8677 596.007 74.4564 596.007 68.3074V30.8787C596.007 24.5515 597.433 20.0511 600.284 17.3776C603.136 14.7041 608.84 13.3674 617.395 13.3674H639.718V14.7041H617.395C609.553 14.7041 604.25 15.9518 601.488 18.447C598.725 20.8532 597.344 24.9971 597.344 30.8787V68.3074C597.344 74.1 598.68 78.1993 601.354 80.6055C604.027 83.0116 609.374 84.2146 617.395 84.2146H639.718Z" fill="url(#gradient)"/>
<path d="M729.886 113.489H667.862C665.723 113.489 664.163 112.999 663.183 112.019C662.203 111.039 661.713 109.479 661.713 107.34V20.7195C661.713 19.561 661.846 18.5807 662.114 17.7786C662.47 16.9766 662.96 16.3082 663.584 15.7735L680.828 1.20307C681.274 0.846602 681.853 0.579252 682.566 0.401017C683.368 0.133672 684.214 0 685.106 0H747.13C749.269 0 750.829 0.490137 751.809 1.47041C752.789 2.45069 753.279 4.01022 753.279 6.14901V21.7889C753.279 22.9474 753.101 23.9277 752.745 24.7297C752.477 25.5317 752.032 26.2001 751.408 26.7348L739.912 36.2257C740.803 36.6712 741.427 37.3396 741.783 38.2308C742.229 39.1219 742.452 40.2804 742.452 41.7063V56.0094C742.452 57.1679 742.273 58.1482 741.917 58.9502C741.65 59.7523 741.204 60.4207 740.58 60.9554L728.683 70.9809H747.13C749.269 70.9809 750.829 71.471 751.809 72.4513C752.789 73.4316 753.279 74.9911 753.279 77.1299V92.7698C753.279 93.9283 753.101 94.9086 752.745 95.7106C752.477 96.5126 752.032 97.181 751.408 97.7157L734.03 112.153C733.674 112.509 733.095 112.821 732.292 113.088C731.58 113.356 730.778 113.489 729.886 113.489Z" fill="url(#gradient)"/>
<path d="M747.13 97.582C748.823 97.582 750.026 97.2256 750.739 96.5127C751.541 95.7106 751.942 94.463 751.942 92.7698V77.1299C751.942 75.4367 751.541 74.2336 750.739 73.5207C750.026 72.7187 748.823 72.3177 747.13 72.3177H710.236V60.8217H736.302C737.996 60.8217 739.199 60.4652 739.912 59.7523C740.714 58.9502 741.115 57.7026 741.115 56.0094V41.7063C741.115 40.0131 740.714 38.81 739.912 38.0971C739.199 37.2951 737.996 36.894 736.302 36.894H710.236V26.6011H747.13C748.823 26.6011 750.026 26.2447 750.739 25.5317C751.541 24.7297 751.942 23.4821 751.942 21.7889V6.14901C751.942 4.4558 751.541 3.25274 750.739 2.53981C750.026 1.73776 748.823 1.33674 747.13 1.33674H685.105C683.412 1.33674 682.164 1.73776 681.362 2.53981C680.649 3.25274 680.293 4.4558 680.293 6.14901V92.7698C680.293 94.463 680.649 95.7106 681.362 96.5127C682.164 97.2256 683.412 97.582 685.105 97.582H747.13Z" fill="url(#gradient)"/>
<path d="M739.911 84.2146V85.5514H694.863V13.3674H739.911V14.7041H696.2V48.2563H729.084V49.5931H696.2V84.2146H739.911Z" fill="url(#gradient)"/>
</g>
<mask id="path-2-inside-1_0_1" fill="white">
<path d="M65.634 46.1175C67.238 46.1175 68.3966 45.7611 69.1095 45.0482C69.8224 44.3352 70.9364 42.8202 72.4513 40.5032L88.7596 15.6399C89.2943 14.7487 89.8735 14.1694 90.4973 13.9021C91.2103 13.5456 91.9232 13.3674 92.6361 13.3674H94.9086C96.1562 13.3674 97.0474 13.7239 97.5821 14.4368C98.2059 15.0606 98.5178 16.0854 98.5178 17.5113V85.5514H97.181V17.5113C97.181 16.7984 97.0028 16.1746 96.6463 15.6399C96.379 15.016 95.7997 14.7041 94.9086 14.7041H92.9035C92.2796 14.7041 91.745 14.7933 91.2994 14.9715C90.8538 15.1497 90.3637 15.6844 89.829 16.5756L73.5207 41.1716C71.9166 43.5777 70.669 45.2264 69.7779 46.1175C68.9758 47.0087 67.5945 47.4543 65.634 47.4543C63.6734 47.4543 62.2475 47.0087 61.3564 46.1175C60.5543 45.2264 59.3513 43.5777 57.7472 41.1716L41.439 16.5756C40.9043 15.6844 40.3696 15.1497 39.8349 14.9715C39.3893 14.7933 38.8546 14.7041 38.2308 14.7041H36.2257C35.3345 14.7041 34.7553 15.016 34.4879 15.6399C34.2206 16.1746 34.0869 16.7984 34.0869 17.5113V85.5514H32.7501V17.5113C32.7501 16.0854 33.0175 15.0606 33.5522 14.4368C34.176 13.7239 35.0672 13.3674 36.2257 13.3674H38.4981C39.2111 13.3674 39.924 13.5456 40.6369 13.9021C41.3498 14.1694 41.9737 14.7487 42.5083 15.6399L58.8166 40.5032C60.3316 42.8202 61.4455 44.3352 62.1584 45.0482C62.8714 45.7611 64.0299 46.1175 65.634 46.1175ZM43.3104 97.582C45.0036 97.582 46.2067 97.2256 46.9196 96.5127C47.7216 95.7106 48.1227 94.463 48.1227 92.7698V45.7165L56.0094 60.287C56.8115 61.802 57.7472 62.9159 58.8166 63.6288C59.9751 64.2527 61.4009 64.5646 63.0941 64.5646H68.4411C70.1343 64.5646 71.5156 64.2527 72.585 63.6288C73.7435 62.9159 74.7238 61.802 75.5258 60.287L83.4126 45.7165V92.7698C83.4126 94.463 83.7691 95.7106 84.482 96.5127C85.284 97.2256 86.5317 97.582 88.2249 97.582H108.811C110.504 97.582 111.707 97.2256 112.42 96.5127C113.222 95.7106 113.623 94.463 113.623 92.7698V6.14901C113.623 4.4558 113.222 3.25274 112.42 2.53981C111.707 1.73776 110.504 1.33674 108.811 1.33674H87.1555C85.7296 1.33674 84.5266 1.64864 83.5463 2.27245C82.6551 2.89627 81.8085 3.9211 81.0065 5.34696L69.1095 27.1358C68.6639 27.9379 68.2629 28.5171 67.9064 28.8736C67.6391 29.2301 67.238 29.4083 66.7034 29.4083H65.5003C64.9656 29.4083 64.52 29.2301 64.1635 28.8736C63.8962 28.5171 63.5397 27.9379 63.0941 27.1358L51.0635 5.34696C50.2614 3.9211 49.3703 2.89627 48.39 2.27245C47.4988 1.64864 46.3403 1.33674 44.9145 1.33674H23.393C21.6998 1.33674 20.4521 1.73776 19.6501 2.53981C18.9372 3.25274 18.5807 4.4558 18.5807 6.14901V92.7698C18.5807 94.463 18.9372 95.7106 19.6501 96.5127C20.4521 97.2256 21.6998 97.582 23.393 97.582H43.3104ZM47.588 97.7157L30.2103 112.153C29.8539 112.509 29.2746 112.821 28.4726 113.088C27.7596 113.356 26.9576 113.489 26.0664 113.489H6.14901C4.01022 113.489 2.45069 112.999 1.47041 112.019C0.490138 111.039 0 109.479 0 107.34V20.7195C0 19.561 0.133674 18.5807 0.401022 17.7786C0.757486 16.9766 1.24762 16.3082 1.87144 15.7735L19.1154 1.20307C19.561 0.846602 20.1402 0.579252 20.8531 0.401017C21.6552 0.133672 22.5018 0 23.393 0H44.9145C46.6077 0 47.989 0.356462 49.0584 1.06939C50.2169 1.78232 51.2863 2.98538 52.2666 4.67859L61.3564 21.3878L62.5595 19.2491C62.9159 18.6252 63.2724 18.046 63.6288 17.5113C64.0744 16.8875 64.52 16.3973 64.9656 16.0409L82.2095 1.60408C82.9225 1.06939 83.6354 0.668367 84.3483 0.401017C85.1504 0.133672 86.0861 0 87.1555 0H108.811C110.949 0 112.509 0.490137 113.489 1.47041C114.47 2.45069 114.96 4.01022 114.96 6.14901V92.7698C114.96 93.9283 114.781 94.9086 114.425 95.7106C114.158 96.5126 113.712 97.181 113.088 97.7157L95.7106 112.153C95.3541 112.509 94.7749 112.821 93.9729 113.088C93.2599 113.356 92.4579 113.489 91.5667 113.489H70.9809C68.753 113.489 67.1489 112.999 66.1686 112.019C65.2775 111.039 64.8319 109.479 64.8319 107.34V72.0503L56.9451 78.6003C56.2322 79.2241 55.3856 79.7143 54.4053 80.0707C53.5142 80.3381 52.4448 80.4718 51.1972 80.4718H49.4594V92.7698C49.4594 93.9283 49.2812 94.9086 48.9247 95.7106C48.6574 96.5126 48.2118 97.181 47.588 97.7157Z"/>
<path d="M158.968 57.0788V61.2227H211.101V57.0788C211.101 54.6727 210.878 52.4448 210.432 50.3951C210.076 48.3454 209.586 46.4294 208.962 44.6471L199.738 22.8583C198.758 20.5412 197.733 18.6252 196.664 17.1103C195.594 15.5062 193.812 14.7041 191.317 14.7041H178.217C175.543 14.7041 173.672 15.5062 172.602 17.1103C171.533 18.6252 170.553 20.4967 169.662 22.7246L161.106 44.6471C160.483 46.4294 159.948 48.3454 159.502 50.3951C159.146 52.4448 158.968 54.6727 158.968 57.0788ZM180.356 29.4083C180.712 28.6062 181.068 28.027 181.425 27.6705C181.87 27.3141 182.361 27.1358 182.895 27.1358H186.237C186.772 27.1358 187.217 27.3141 187.574 27.6705C188.02 28.027 188.421 28.6062 188.777 29.4083L195.06 49.7267H174.073L180.356 29.4083ZM211.101 85.5514V62.5594H158.968V85.5514H157.631V57.0788C157.631 54.5836 157.809 52.3111 158.166 50.2614C158.611 48.1226 159.19 46.073 159.903 44.1124L168.459 22.1899C169.439 19.6946 170.553 17.6004 171.8 15.9072C173.048 14.214 175.187 13.3674 178.217 13.3674H191.317C194.258 13.3674 196.307 14.214 197.466 15.9072C198.713 17.6004 199.872 19.7392 200.941 22.3236L210.165 44.1124C210.878 46.073 211.412 48.1226 211.769 50.2614C212.215 52.3111 212.437 54.5836 212.437 57.0788V85.5514H211.101ZM172.736 92.7698V74.0554H196.396V92.7698C196.396 94.463 196.797 95.7106 197.599 96.5127C198.491 97.2256 199.827 97.582 201.61 97.582H221.794C223.488 97.582 224.691 97.2256 225.404 96.5127C226.206 95.7106 226.607 94.463 226.607 92.7698V57.4798C226.607 54.8064 226.161 51.7319 225.27 48.2563C224.468 44.7808 223.176 40.726 221.393 36.092L209.764 5.74798C209.229 4.23301 208.383 3.11906 207.224 2.40613C206.155 1.6932 204.773 1.33674 203.08 1.33674H167.122C165.339 1.33674 163.869 1.6932 162.711 2.40613C161.641 3.11906 160.839 4.23301 160.304 5.74798L148.675 36.092C146.892 40.726 145.556 44.7808 144.665 48.2563C143.863 51.7319 143.461 54.8064 143.461 57.4798V92.7698C143.461 94.463 143.818 95.7106 144.531 96.5127C145.333 97.2256 146.581 97.582 148.274 97.582H167.924C169.617 97.582 170.82 97.2256 171.533 96.5127C172.335 95.7106 172.736 94.463 172.736 92.7698ZM154.824 112.153C154.467 112.509 153.888 112.821 153.086 113.088C152.373 113.356 151.571 113.489 150.68 113.489H131.03C128.891 113.489 127.331 112.999 126.351 112.019C125.371 111.039 124.881 109.479 124.881 107.34V72.0503C124.881 69.2877 125.282 66.1686 126.084 62.6931C126.975 59.1285 128.356 54.94 130.228 50.1278L141.724 19.9174C141.991 19.1154 142.303 18.447 142.659 17.9123C143.105 17.2885 143.551 16.7538 143.996 16.3082L144.13 16.1746L161.24 1.87144C161.953 1.24762 162.8 0.802042 163.78 0.534697C164.76 0.178232 165.874 0 167.122 0H203.08C205.13 0 206.778 0.44558 208.026 1.33674C209.363 2.13878 210.343 3.43096 210.967 5.21328L222.597 35.5573C224.468 40.3696 225.805 44.558 226.607 48.1227C227.498 51.5982 227.943 54.7172 227.943 57.4798V92.7698C227.943 93.9283 227.765 94.9086 227.409 95.7106C227.141 96.5126 226.696 97.181 226.072 97.7157L208.694 112.153C208.338 112.509 207.759 112.821 206.957 113.088C206.244 113.356 205.442 113.489 204.551 113.489H184.366C182.138 113.489 180.489 112.955 179.42 111.885C178.35 110.905 177.816 109.39 177.816 107.34V89.9626H174.073V92.7698C174.073 93.9283 173.895 94.9086 173.538 95.7106C173.271 96.5126 172.825 97.181 172.201 97.7157L154.824 112.153Z"/>
<path d="M270.863 79.536V85.5514H269.527V79.536C269.527 77.5755 269.571 75.7486 269.66 74.0554C269.838 72.2731 270.462 70.669 271.532 69.2432L287.573 47.3206L271.532 25.6654C270.551 24.2396 269.972 22.68 269.794 20.9868C269.616 19.2045 269.527 17.3331 269.527 15.3725V13.3674H270.863V15.3725C270.863 17.2439 270.952 19.0263 271.131 20.7195C271.309 22.4127 271.844 23.8831 272.735 25.1307L288.776 46.7859H304.683L320.189 25.1307C321.08 23.8831 321.615 22.4127 321.793 20.7195C321.971 19.0263 322.06 17.2439 322.06 15.3725V13.3674H323.397V15.3725C323.397 17.3331 323.308 19.2045 323.13 20.9868C322.952 22.68 322.372 24.2396 321.392 25.6654L305.619 47.588L321.392 69.2432C322.372 70.669 322.952 72.2731 323.13 74.0554C323.308 75.7486 323.397 77.5755 323.397 79.536V85.5514H322.06V79.536C322.06 77.6646 321.971 75.8823 321.793 74.1891C321.615 72.4959 321.08 71.0255 320.189 69.7778L304.549 48.1227H288.508L272.735 69.7778C271.844 70.9364 271.309 72.4068 271.131 74.1891C270.952 75.8823 270.863 77.6646 270.863 79.536ZM285.166 92.7698V79.536C285.166 78.6449 285.211 77.7092 285.3 76.7289C285.389 75.7486 285.746 74.8129 286.369 73.9217L292.385 65.5003C292.92 64.6982 293.41 64.119 293.855 63.7625C294.301 63.4061 294.88 63.2278 295.593 63.2278H297.464C298.177 63.2278 298.757 63.4061 299.202 63.7625C299.648 64.119 300.138 64.6982 300.673 65.5003L306.554 73.9217C307.178 74.8129 307.535 75.7486 307.624 76.7289C307.713 77.7092 307.757 78.6449 307.757 79.536V92.7698C307.757 94.463 308.114 95.7106 308.827 96.5127C309.629 97.2256 310.876 97.582 312.57 97.582H332.888C334.581 97.582 335.784 97.2256 336.497 96.5127C337.299 95.7106 337.7 94.463 337.7 92.7698V78.4667C337.7 74.3673 337.344 71.2928 336.631 69.2432C336.007 67.1935 334.67 64.7874 332.621 62.0248L321.793 47.588L332.621 32.8838C334.581 30.1212 335.918 27.7151 336.631 25.6654C337.344 23.6157 337.7 20.5412 337.7 16.4419V6.14901C337.7 4.4558 337.299 3.25274 336.497 2.53981C335.784 1.73776 334.581 1.33674 332.888 1.33674H312.57C310.876 1.33674 309.629 1.73776 308.827 2.53981C308.114 3.25274 307.757 4.4558 307.757 6.14901V15.3725C307.757 16.2637 307.713 17.1994 307.624 18.1797C307.535 19.1599 307.178 20.0957 306.554 20.9868L300.539 29.4083C300.004 30.1212 299.514 30.7005 299.069 31.146C298.623 31.5025 298.044 31.6807 297.331 31.6807H295.727C295.014 31.6807 294.39 31.5025 293.855 31.146C293.41 30.7005 292.964 30.1212 292.518 29.4083L286.637 20.9868C286.013 20.0957 285.657 19.1599 285.567 18.1797C285.478 17.1994 285.434 16.2637 285.434 15.3725V6.14901C285.434 4.4558 285.033 3.25274 284.231 2.53981C283.518 1.73776 282.315 1.33674 280.621 1.33674H260.036C258.342 1.33674 257.095 1.73776 256.293 2.53981C255.58 3.25274 255.223 4.4558 255.223 6.14901V16.4419C255.223 20.5412 255.535 23.6157 256.159 25.6654C256.872 27.7151 258.253 30.1212 260.303 32.8838L271.131 47.4543L260.303 62.0248C258.342 64.7874 257.006 67.1935 256.293 69.2432C255.58 71.2928 255.223 74.3673 255.223 78.4667V92.7698C255.223 94.463 255.58 95.7106 256.293 96.5127C257.095 97.2256 258.342 97.582 260.036 97.582H280.354C282.047 97.582 283.25 97.2256 283.963 96.5127C284.765 95.7106 285.166 94.463 285.166 92.7698ZM284.632 97.7157L267.254 112.153C266.898 112.509 266.318 112.821 265.516 113.088C264.803 113.356 264.001 113.489 263.11 113.489H242.792C240.653 113.489 239.093 112.999 238.113 112.019C237.133 111.039 236.643 109.479 236.643 107.34V93.0371C236.643 88.6704 236.999 85.4177 237.712 83.2789C238.425 81.1401 239.851 78.6449 241.99 75.7932L252.283 62.0248L241.99 48.2563C239.851 45.4046 238.425 42.9094 237.712 40.7706C236.999 38.6318 236.643 35.3791 236.643 31.0124V20.7195C236.643 19.561 236.776 18.5807 237.044 17.7786C237.4 16.9766 237.89 16.3082 238.514 15.7735L255.758 1.20307C256.204 0.846602 256.783 0.579252 257.496 0.401017C258.298 0.133672 259.145 0 260.036 0H280.621C282.76 0 284.32 0.490137 285.3 1.47041C286.28 2.45069 286.77 4.01022 286.77 6.14901V15.3725C286.77 16.1746 286.77 17.0212 286.77 17.9123C286.86 18.7144 287.172 19.4718 287.706 20.1848L289.177 22.3236V20.7195C289.177 19.561 289.31 18.5807 289.578 17.7786C289.934 16.9766 290.424 16.3082 291.048 15.7735L308.292 1.20307C308.738 0.846602 309.317 0.579252 310.03 0.401017C310.832 0.133672 311.678 0 312.57 0H332.888C335.027 0 336.586 0.490137 337.567 1.47041C338.547 2.45069 339.037 4.01022 339.037 6.14901V16.4419C339.037 20.8086 338.681 24.0613 337.968 26.2001C337.255 28.3389 335.829 30.8341 333.69 33.6859L323.397 47.588L333.69 61.2227C335.829 64.0744 337.255 66.5697 337.968 68.7084C338.681 70.8472 339.037 74.1 339.037 78.4667V92.7698C339.037 93.9283 338.859 94.9086 338.502 95.7106C338.235 96.5126 337.789 97.181 337.166 97.7157L319.788 112.153C319.432 112.509 318.852 112.821 318.05 113.088C317.337 113.356 316.535 113.489 315.644 113.489H295.326C293.187 113.489 291.627 112.999 290.647 112.019C289.667 111.039 289.177 109.479 289.177 107.34V94.1065C289.177 93.3045 289.132 92.5024 289.043 91.7004C289.043 90.8983 288.776 90.0963 288.241 89.2943L286.503 86.8881V92.7698C286.503 93.9283 286.325 94.9086 285.968 95.7106C285.701 96.5126 285.256 97.181 284.632 97.7157Z"/>
<path d="M417.893 113.489H355.868C353.73 113.489 352.17 112.999 351.19 112.019C350.21 111.039 349.719 109.479 349.719 107.34V20.7195C349.719 19.561 349.853 18.5807 350.121 17.7786C350.477 16.9766 350.967 16.3082 351.591 15.7735L368.835 1.20307C369.28 0.846602 369.86 0.579252 370.573 0.401017C371.375 0.133672 372.221 0 373.112 0H435.137C437.276 0 438.836 0.490137 439.816 1.47041C440.796 2.45069 441.286 4.01022 441.286 6.14901V21.7889C441.286 22.9474 441.108 23.9277 440.751 24.7297C440.484 25.5317 440.039 26.2001 439.415 26.7348L427.919 36.2257C428.81 36.6712 429.434 37.3396 429.79 38.2308C430.236 39.1219 430.459 40.2804 430.459 41.7063V56.0094C430.459 57.1679 430.28 58.1482 429.924 58.9502C429.657 59.7523 429.211 60.4207 428.587 60.9554L416.69 70.9809H435.137C437.276 70.9809 438.836 71.471 439.816 72.4513C440.796 73.4316 441.286 74.9911 441.286 77.1299V92.7698C441.286 93.9283 441.108 94.9086 440.751 95.7106C440.484 96.5126 440.039 97.181 439.415 97.7157L422.037 112.153C421.681 112.509 421.101 112.821 420.299 113.088C419.586 113.356 418.784 113.489 417.893 113.489ZM435.137 97.582C436.83 97.582 438.033 97.2256 438.746 96.5127C439.548 95.7106 439.949 94.463 439.949 92.7698V77.1299C439.949 75.4367 439.548 74.2336 438.746 73.5207C438.033 72.7187 436.83 72.3177 435.137 72.3177H398.243V60.8217H424.31C426.003 60.8217 427.206 60.4652 427.919 59.7523C428.721 58.9502 429.122 57.7026 429.122 56.0094V41.7063C429.122 40.0131 428.721 38.81 427.919 38.0971C427.206 37.2951 426.003 36.894 424.31 36.894H398.243V26.6011H435.137C436.83 26.6011 438.033 26.2447 438.746 25.5317C439.548 24.7297 439.949 23.4821 439.949 21.7889V6.14901C439.949 4.4558 439.548 3.25274 438.746 2.53981C438.033 1.73776 436.83 1.33674 435.137 1.33674H373.112C371.419 1.33674 370.172 1.73776 369.37 2.53981C368.657 3.25274 368.3 4.4558 368.3 6.14901V92.7698C368.3 94.463 368.657 95.7106 369.37 96.5127C370.172 97.2256 371.419 97.582 373.112 97.582H435.137ZM427.919 84.2146V85.5514H382.871V13.3674H427.919V14.7041H384.207V48.2563H417.091V49.5931H384.207V84.2146H427.919Z"/>
<path d="M486.723 14.4368L535.915 69.7778V13.3674H537.252V85.5514H535.915V71.783L485.386 15.1052C485.297 15.016 485.163 14.9269 484.985 14.8378C484.896 14.7487 484.807 14.7041 484.718 14.7041C484.629 14.7041 484.539 14.7487 484.45 14.8378C484.45 14.9269 484.45 15.016 484.45 15.1052V85.5514H483.114V14.8378C483.114 14.3031 483.292 13.9021 483.648 13.6348C484.005 13.3674 484.361 13.2337 484.718 13.2337C485.074 13.2337 485.386 13.3228 485.653 13.5011C485.921 13.6793 486.277 13.9912 486.723 14.4368ZM493.941 97.582C495.634 97.582 496.837 97.2256 497.55 96.5127C498.352 95.7106 498.754 94.463 498.754 92.7698V48.6573L521.612 76.3279V92.7698C521.612 94.463 521.968 95.7106 522.681 96.5127C523.483 97.2256 524.731 97.582 526.424 97.582H546.475C548.168 97.582 549.371 97.2256 550.084 96.5127C550.886 95.7106 551.287 94.463 551.287 92.7698V6.14901C551.287 4.4558 550.886 3.25274 550.084 2.53981C549.371 1.73776 548.168 1.33674 546.475 1.33674H526.424C524.731 1.33674 523.483 1.73776 522.681 2.53981C521.968 3.25274 521.612 4.4558 521.612 6.14901V34.6216L495.679 4.94594C494.52 3.6092 493.317 2.67348 492.07 2.13878C490.911 1.60409 489.485 1.33674 487.792 1.33674H473.89C472.197 1.33674 470.949 1.73776 470.147 2.53981C469.434 3.25274 469.078 4.4558 469.078 6.14901V92.7698C469.078 94.463 469.434 95.7106 470.147 96.5127C470.949 97.2256 472.197 97.582 473.89 97.582H493.941ZM498.219 97.7157L480.841 112.153C480.485 112.509 479.905 112.821 479.103 113.088C478.39 113.356 477.588 113.489 476.697 113.489H456.646C454.507 113.489 452.948 112.999 451.968 112.019C450.987 111.039 450.497 109.479 450.497 107.34V20.7195C450.497 19.561 450.631 18.5807 450.898 17.7786C451.255 16.9766 451.745 16.3082 452.369 15.7735L469.613 1.20307C470.058 0.846602 470.637 0.579252 471.35 0.401017C472.152 0.133672 472.999 0 473.89 0H487.792C489.753 0 491.401 0.311905 492.738 0.935714C494.075 1.55953 495.412 2.58436 496.748 4.01022L505.972 14.7041L522.146 1.20307C522.592 0.846602 523.171 0.579252 523.884 0.401017C524.686 0.133672 525.533 0 526.424 0H546.475C548.614 0 550.173 0.490137 551.154 1.47041C552.134 2.45069 552.624 4.01022 552.624 6.14901V92.7698C552.624 93.9283 552.446 94.9086 552.089 95.7106C551.822 96.5126 551.377 97.181 550.753 97.7157L533.375 112.153C533.019 112.509 532.439 112.821 531.637 113.088C530.924 113.356 530.122 113.489 529.231 113.489H509.18C507.041 113.489 505.482 112.999 504.501 112.019C503.521 111.039 503.031 109.479 503.031 107.34V91.433L500.09 87.8238V92.7698C500.09 93.9283 499.912 94.9086 499.556 95.7106C499.288 96.5126 498.843 97.181 498.219 97.7157Z"/>
<path d="M629.826 113.489H597.21C585.535 113.489 576.891 110.459 571.277 104.399C565.752 98.3395 562.989 90.4973 562.989 80.8728V43.3104C562.989 38.409 563.702 34.176 565.128 30.6113C566.554 26.9576 568.648 23.9276 571.411 21.5215L588.788 6.95105C591.551 4.63403 595.071 2.89627 599.348 1.73776C603.626 0.579255 608.661 0 614.454 0H647.07C649.209 0 650.768 0.490137 651.749 1.47041C652.729 2.45069 653.219 4.01022 653.219 6.14901V22.3236C653.219 23.4821 653.041 24.4623 652.684 25.2644C652.417 26.0664 651.971 26.7348 651.348 27.2695L633.97 41.7063C633.614 42.0628 633.034 42.3747 632.232 42.642C631.519 42.9094 630.717 43.043 629.826 43.043H613.384V65.6339C613.384 67.5054 613.963 68.8421 615.122 69.6442C616.28 70.3571 617.974 70.7136 620.202 70.7136H647.07C649.209 70.7136 650.768 71.2037 651.749 72.184C652.729 73.1643 653.219 74.7238 653.219 76.8626V92.7698C653.219 93.9283 653.041 94.9086 652.684 95.7106C652.417 96.5126 651.971 97.181 651.348 97.7157L633.97 112.153C633.614 112.509 633.034 112.821 632.232 113.088C631.519 113.356 630.717 113.489 629.826 113.489ZM647.07 97.582C648.763 97.582 649.966 97.2256 650.679 96.5127C651.481 95.7106 651.882 94.463 651.882 92.7698V76.8626C651.882 75.1694 651.481 73.9663 650.679 73.2534C649.966 72.4513 648.763 72.0503 647.07 72.0503H620.202C617.439 72.0503 615.389 71.5602 614.053 70.5799C612.716 69.5105 612.047 67.8618 612.047 65.6339V33.8195C612.047 31.5916 612.716 29.943 614.053 28.8736C615.389 27.7151 617.439 27.1358 620.202 27.1358H647.07C648.763 27.1358 649.966 26.7794 650.679 26.0664C651.481 25.2644 651.882 24.0168 651.882 22.3236V6.14901C651.882 4.4558 651.481 3.25274 650.679 2.53981C649.966 1.73776 648.763 1.33674 647.07 1.33674H614.454C603.314 1.33674 595.026 3.6092 589.59 8.15411C584.243 12.6099 581.57 19.4718 581.57 28.7399V70.3125C581.57 79.5806 584.243 86.4425 589.59 90.8983C595.026 95.3541 603.314 97.582 614.454 97.582H647.07ZM639.718 84.2146V85.5514H617.394C608.75 85.5514 603.002 84.2146 600.15 81.5412C597.388 78.8677 596.007 74.4564 596.007 68.3074V30.8787C596.007 24.5515 597.432 20.0511 600.284 17.3776C603.136 14.7041 608.839 13.3674 617.394 13.3674H639.718V14.7041H617.394C609.552 14.7041 604.25 15.9518 601.487 18.447C598.725 20.8532 597.343 24.997 597.343 30.8787V68.3074C597.343 74.1 598.68 78.1993 601.354 80.6054C604.027 83.0116 609.374 84.2146 617.394 84.2146H639.718Z"/>
<path d="M729.886 113.489H667.862C665.723 113.489 664.163 112.999 663.183 112.019C662.203 111.039 661.713 109.479 661.713 107.34V20.7195C661.713 19.561 661.846 18.5807 662.114 17.7786C662.47 16.9766 662.96 16.3082 663.584 15.7735L680.828 1.20307C681.274 0.846602 681.853 0.579252 682.566 0.401017C683.368 0.133672 684.214 0 685.106 0H747.13C749.269 0 750.829 0.490137 751.809 1.47041C752.789 2.45069 753.279 4.01022 753.279 6.14901V21.7889C753.279 22.9474 753.101 23.9277 752.745 24.7297C752.477 25.5317 752.032 26.2001 751.408 26.7348L739.912 36.2257C740.803 36.6712 741.427 37.3396 741.783 38.2308C742.229 39.1219 742.452 40.2804 742.452 41.7063V56.0094C742.452 57.1679 742.273 58.1482 741.917 58.9502C741.65 59.7523 741.204 60.4207 740.58 60.9554L728.683 70.9809H747.13C749.269 70.9809 750.829 71.471 751.809 72.4513C752.789 73.4316 753.279 74.9911 753.279 77.1299V92.7698C753.279 93.9283 753.101 94.9086 752.745 95.7106C752.477 96.5126 752.032 97.181 751.408 97.7157L734.03 112.153C733.674 112.509 733.095 112.821 732.292 113.088C731.58 113.356 730.778 113.489 729.886 113.489ZM747.13 97.582C748.823 97.582 750.027 97.2256 750.74 96.5127C751.542 95.7106 751.943 94.463 751.943 92.7698V77.1299C751.943 75.4367 751.542 74.2336 750.74 73.5207C750.027 72.7187 748.823 72.3177 747.13 72.3177H710.236V60.8217H736.303C737.996 60.8217 739.199 60.4652 739.912 59.7523C740.714 58.9502 741.115 57.7026 741.115 56.0094V41.7063C741.115 40.0131 740.714 38.81 739.912 38.0971C739.199 37.2951 737.996 36.894 736.303 36.894H710.236V26.6011H747.13C748.823 26.6011 750.027 26.2447 750.74 25.5317C751.542 24.7297 751.943 23.4821 751.943 21.7889V6.14901C751.943 4.4558 751.542 3.25274 750.74 2.53981C750.027 1.73776 748.823 1.33674 747.13 1.33674H685.106C683.412 1.33674 682.165 1.73776 681.363 2.53981C680.65 3.25274 680.293 4.4558 680.293 6.14901V92.7698C680.293 94.463 680.65 95.7106 681.363 96.5127C682.165 97.2256 683.412 97.582 685.106 97.582H747.13ZM739.912 84.2146V85.5514H694.864V13.3674H739.912V14.7041H696.201V48.2563H729.084V49.5931H696.201V84.2146H739.912Z"/>
</mask>
<path d="M65.634 46.1175C67.238 46.1175 68.3966 45.7611 69.1095 45.0482C69.8224 44.3352 70.9364 42.8202 72.4513 40.5032L88.7596 15.6399C89.2943 14.7487 89.8735 14.1694 90.4973 13.9021C91.2103 13.5456 91.9232 13.3674 92.6361 13.3674H94.9086C96.1562 13.3674 97.0474 13.7239 97.5821 14.4368C98.2059 15.0606 98.5178 16.0854 98.5178 17.5113V85.5514H97.181V17.5113C97.181 16.7984 97.0028 16.1746 96.6463 15.6399C96.379 15.016 95.7997 14.7041 94.9086 14.7041H92.9035C92.2796 14.7041 91.745 14.7933 91.2994 14.9715C90.8538 15.1497 90.3637 15.6844 89.829 16.5756L73.5207 41.1716C71.9166 43.5777 70.669 45.2264 69.7779 46.1175C68.9758 47.0087 67.5945 47.4543 65.634 47.4543C63.6734 47.4543 62.2475 47.0087 61.3564 46.1175C60.5543 45.2264 59.3513 43.5777 57.7472 41.1716L41.439 16.5756C40.9043 15.6844 40.3696 15.1497 39.8349 14.9715C39.3893 14.7933 38.8546 14.7041 38.2308 14.7041H36.2257C35.3345 14.7041 34.7553 15.016 34.4879 15.6399C34.2206 16.1746 34.0869 16.7984 34.0869 17.5113V85.5514H32.7501V17.5113C32.7501 16.0854 33.0175 15.0606 33.5522 14.4368C34.176 13.7239 35.0672 13.3674 36.2257 13.3674H38.4981C39.2111 13.3674 39.924 13.5456 40.6369 13.9021C41.3498 14.1694 41.9737 14.7487 42.5083 15.6399L58.8166 40.5032C60.3316 42.8202 61.4455 44.3352 62.1584 45.0482C62.8714 45.7611 64.0299 46.1175 65.634 46.1175ZM43.3104 97.582C45.0036 97.582 46.2067 97.2256 46.9196 96.5127C47.7216 95.7106 48.1227 94.463 48.1227 92.7698V45.7165L56.0094 60.287C56.8115 61.802 57.7472 62.9159 58.8166 63.6288C59.9751 64.2527 61.4009 64.5646 63.0941 64.5646H68.4411C70.1343 64.5646 71.5156 64.2527 72.585 63.6288C73.7435 62.9159 74.7238 61.802 75.5258 60.287L83.4126 45.7165V92.7698C83.4126 94.463 83.7691 95.7106 84.482 96.5127C85.284 97.2256 86.5317 97.582 88.2249 97.582H108.811C110.504 97.582 111.707 97.2256 112.42 96.5127C113.222 95.7106 113.623 94.463 113.623 92.7698V6.14901C113.623 4.4558 113.222 3.25274 112.42 2.53981C111.707 1.73776 110.504 1.33674 108.811 1.33674H87.1555C85.7296 1.33674 84.5266 1.64864 83.5463 2.27245C82.6551 2.89627 81.8085 3.9211 81.0065 5.34696L69.1095 27.1358C68.6639 27.9379 68.2629 28.5171 67.9064 28.8736C67.6391 29.2301 67.238 29.4083 66.7034 29.4083H65.5003C64.9656 29.4083 64.52 29.2301 64.1635 28.8736C63.8962 28.5171 63.5397 27.9379 63.0941 27.1358L51.0635 5.34696C50.2614 3.9211 49.3703 2.89627 48.39 2.27245C47.4988 1.64864 46.3403 1.33674 44.9145 1.33674H23.393C21.6998 1.33674 20.4521 1.73776 19.6501 2.53981C18.9372 3.25274 18.5807 4.4558 18.5807 6.14901V92.7698C18.5807 94.463 18.9372 95.7106 19.6501 96.5127C20.4521 97.2256 21.6998 97.582 23.393 97.582H43.3104ZM47.588 97.7157L30.2103 112.153C29.8539 112.509 29.2746 112.821 28.4726 113.088C27.7596 113.356 26.9576 113.489 26.0664 113.489H6.14901C4.01022 113.489 2.45069 112.999 1.47041 112.019C0.490138 111.039 0 109.479 0 107.34V20.7195C0 19.561 0.133674 18.5807 0.401022 17.7786C0.757486 16.9766 1.24762 16.3082 1.87144 15.7735L19.1154 1.20307C19.561 0.846602 20.1402 0.579252 20.8531 0.401017C21.6552 0.133672 22.5018 0 23.393 0H44.9145C46.6077 0 47.989 0.356462 49.0584 1.06939C50.2169 1.78232 51.2863 2.98538 52.2666 4.67859L61.3564 21.3878L62.5595 19.2491C62.9159 18.6252 63.2724 18.046 63.6288 17.5113C64.0744 16.8875 64.52 16.3973 64.9656 16.0409L82.2095 1.60408C82.9225 1.06939 83.6354 0.668367 84.3483 0.401017C85.1504 0.133672 86.0861 0 87.1555 0H108.811C110.949 0 112.509 0.490137 113.489 1.47041C114.47 2.45069 114.96 4.01022 114.96 6.14901V92.7698C114.96 93.9283 114.781 94.9086 114.425 95.7106C114.158 96.5126 113.712 97.181 113.088 97.7157L95.7106 112.153C95.3541 112.509 94.7749 112.821 93.9729 113.088C93.2599 113.356 92.4579 113.489 91.5667 113.489H70.9809C68.753 113.489 67.1489 112.999 66.1686 112.019C65.2775 111.039 64.8319 109.479 64.8319 107.34V72.0503L56.9451 78.6003C56.2322 79.2241 55.3856 79.7143 54.4053 80.0707C53.5142 80.3381 52.4448 80.4718 51.1972 80.4718H49.4594V92.7698C49.4594 93.9283 49.2812 94.9086 48.9247 95.7106C48.6574 96.5126 48.2118 97.181 47.588 97.7157Z" fill="white"/>
<path d="M158.968 57.0788V61.2227H211.101V57.0788C211.101 54.6727 210.878 52.4448 210.432 50.3951C210.076 48.3454 209.586 46.4294 208.962 44.6471L199.738 22.8583C198.758 20.5412 197.733 18.6252 196.664 17.1103C195.594 15.5062 193.812 14.7041 191.317 14.7041H178.217C175.543 14.7041 173.672 15.5062 172.602 17.1103C171.533 18.6252 170.553 20.4967 169.662 22.7246L161.106 44.6471C160.483 46.4294 159.948 48.3454 159.502 50.3951C159.146 52.4448 158.968 54.6727 158.968 57.0788ZM180.356 29.4083C180.712 28.6062 181.068 28.027 181.425 27.6705C181.87 27.3141 182.361 27.1358 182.895 27.1358H186.237C186.772 27.1358 187.217 27.3141 187.574 27.6705C188.02 28.027 188.421 28.6062 188.777 29.4083L195.06 49.7267H174.073L180.356 29.4083ZM211.101 85.5514V62.5594H158.968V85.5514H157.631V57.0788C157.631 54.5836 157.809 52.3111 158.166 50.2614C158.611 48.1226 159.19 46.073 159.903 44.1124L168.459 22.1899C169.439 19.6946 170.553 17.6004 171.8 15.9072C173.048 14.214 175.187 13.3674 178.217 13.3674H191.317C194.258 13.3674 196.307 14.214 197.466 15.9072C198.713 17.6004 199.872 19.7392 200.941 22.3236L210.165 44.1124C210.878 46.073 211.412 48.1226 211.769 50.2614C212.215 52.3111 212.437 54.5836 212.437 57.0788V85.5514H211.101ZM172.736 92.7698V74.0554H196.396V92.7698C196.396 94.463 196.797 95.7106 197.599 96.5127C198.491 97.2256 199.827 97.582 201.61 97.582H221.794C223.488 97.582 224.691 97.2256 225.404 96.5127C226.206 95.7106 226.607 94.463 226.607 92.7698V57.4798C226.607 54.8064 226.161 51.7319 225.27 48.2563C224.468 44.7808 223.176 40.726 221.393 36.092L209.764 5.74798C209.229 4.23301 208.383 3.11906 207.224 2.40613C206.155 1.6932 204.773 1.33674 203.08 1.33674H167.122C165.339 1.33674 163.869 1.6932 162.711 2.40613C161.641 3.11906 160.839 4.23301 160.304 5.74798L148.675 36.092C146.892 40.726 145.556 44.7808 144.665 48.2563C143.863 51.7319 143.461 54.8064 143.461 57.4798V92.7698C143.461 94.463 143.818 95.7106 144.531 96.5127C145.333 97.2256 146.581 97.582 148.274 97.582H167.924C169.617 97.582 170.82 97.2256 171.533 96.5127C172.335 95.7106 172.736 94.463 172.736 92.7698ZM154.824 112.153C154.467 112.509 153.888 112.821 153.086 113.088C152.373 113.356 151.571 113.489 150.68 113.489H131.03C128.891 113.489 127.331 112.999 126.351 112.019C125.371 111.039 124.881 109.479 124.881 107.34V72.0503C124.881 69.2877 125.282 66.1686 126.084 62.6931C126.975 59.1285 128.356 54.94 130.228 50.1278L141.724 19.9174C141.991 19.1154 142.303 18.447 142.659 17.9123C143.105 17.2885 143.551 16.7538 143.996 16.3082L144.13 16.1746L161.24 1.87144C161.953 1.24762 162.8 0.802042 163.78 0.534697C164.76 0.178232 165.874 0 167.122 0H203.08C205.13 0 206.778 0.44558 208.026 1.33674C209.363 2.13878 210.343 3.43096 210.967 5.21328L222.597 35.5573C224.468 40.3696 225.805 44.558 226.607 48.1227C227.498 51.5982 227.943 54.7172 227.943 57.4798V92.7698C227.943 93.9283 227.765 94.9086 227.409 95.7106C227.141 96.5126 226.696 97.181 226.072 97.7157L208.694 112.153C208.338 112.509 207.759 112.821 206.957 113.088C206.244 113.356 205.442 113.489 204.551 113.489H184.366C182.138 113.489 180.489 112.955 179.42 111.885C178.35 110.905 177.816 109.39 177.816 107.34V89.9626H174.073V92.7698C174.073 93.9283 173.895 94.9086 173.538 95.7106C173.271 96.5126 172.825 97.181 172.201 97.7157L154.824 112.153Z" fill="white"/>
<path d="M270.863 79.536V85.5514H269.527V79.536C269.527 77.5755 269.571 75.7486 269.66 74.0554C269.838 72.2731 270.462 70.669 271.532 69.2432L287.573 47.3206L271.532 25.6654C270.551 24.2396 269.972 22.68 269.794 20.9868C269.616 19.2045 269.527 17.3331 269.527 15.3725V13.3674H270.863V15.3725C270.863 17.2439 270.952 19.0263 271.131 20.7195C271.309 22.4127 271.844 23.8831 272.735 25.1307L288.776 46.7859H304.683L320.189 25.1307C321.08 23.8831 321.615 22.4127 321.793 20.7195C321.971 19.0263 322.06 17.2439 322.06 15.3725V13.3674H323.397V15.3725C323.397 17.3331 323.308 19.2045 323.13 20.9868C322.952 22.68 322.372 24.2396 321.392 25.6654L305.619 47.588L321.392 69.2432C322.372 70.669 322.952 72.2731 323.13 74.0554C323.308 75.7486 323.397 77.5755 323.397 79.536V85.5514H322.06V79.536C322.06 77.6646 321.971 75.8823 321.793 74.1891C321.615 72.4959 321.08 71.0255 320.189 69.7778L304.549 48.1227H288.508L272.735 69.7778C271.844 70.9364 271.309 72.4068 271.131 74.1891C270.952 75.8823 270.863 77.6646 270.863 79.536ZM285.166 92.7698V79.536C285.166 78.6449 285.211 77.7092 285.3 76.7289C285.389 75.7486 285.746 74.8129 286.369 73.9217L292.385 65.5003C292.92 64.6982 293.41 64.119 293.855 63.7625C294.301 63.4061 294.88 63.2278 295.593 63.2278H297.464C298.177 63.2278 298.757 63.4061 299.202 63.7625C299.648 64.119 300.138 64.6982 300.673 65.5003L306.554 73.9217C307.178 74.8129 307.535 75.7486 307.624 76.7289C307.713 77.7092 307.757 78.6449 307.757 79.536V92.7698C307.757 94.463 308.114 95.7106 308.827 96.5127C309.629 97.2256 310.876 97.582 312.57 97.582H332.888C334.581 97.582 335.784 97.2256 336.497 96.5127C337.299 95.7106 337.7 94.463 337.7 92.7698V78.4667C337.7 74.3673 337.344 71.2928 336.631 69.2432C336.007 67.1935 334.67 64.7874 332.621 62.0248L321.793 47.588L332.621 32.8838C334.581 30.1212 335.918 27.7151 336.631 25.6654C337.344 23.6157 337.7 20.5412 337.7 16.4419V6.14901C337.7 4.4558 337.299 3.25274 336.497 2.53981C335.784 1.73776 334.581 1.33674 332.888 1.33674H312.57C310.876 1.33674 309.629 1.73776 308.827 2.53981C308.114 3.25274 307.757 4.4558 307.757 6.14901V15.3725C307.757 16.2637 307.713 17.1994 307.624 18.1797C307.535 19.1599 307.178 20.0957 306.554 20.9868L300.539 29.4083C300.004 30.1212 299.514 30.7005 299.069 31.146C298.623 31.5025 298.044 31.6807 297.331 31.6807H295.727C295.014 31.6807 294.39 31.5025 293.855 31.146C293.41 30.7005 292.964 30.1212 292.518 29.4083L286.637 20.9868C286.013 20.0957 285.657 19.1599 285.567 18.1797C285.478 17.1994 285.434 16.2637 285.434 15.3725V6.14901C285.434 4.4558 285.033 3.25274 284.231 2.53981C283.518 1.73776 282.315 1.33674 280.621 1.33674H260.036C258.342 1.33674 257.095 1.73776 256.293 2.53981C255.58 3.25274 255.223 4.4558 255.223 6.14901V16.4419C255.223 20.5412 255.535 23.6157 256.159 25.6654C256.872 27.7151 258.253 30.1212 260.303 32.8838L271.131 47.4543L260.303 62.0248C258.342 64.7874 257.006 67.1935 256.293 69.2432C255.58 71.2928 255.223 74.3673 255.223 78.4667V92.7698C255.223 94.463 255.58 95.7106 256.293 96.5127C257.095 97.2256 258.342 97.582 260.036 97.582H280.354C282.047 97.582 283.25 97.2256 283.963 96.5127C284.765 95.7106 285.166 94.463 285.166 92.7698ZM284.632 97.7157L267.254 112.153C266.898 112.509 266.318 112.821 265.516 113.088C264.803 113.356 264.001 113.489 263.11 113.489H242.792C240.653 113.489 239.093 112.999 238.113 112.019C237.133 111.039 236.643 109.479 236.643 107.34V93.0371C236.643 88.6704 236.999 85.4177 237.712 83.2789C238.425 81.1401 239.851 78.6449 241.99 75.7932L252.283 62.0248L241.99 48.2563C239.851 45.4046 238.425 42.9094 237.712 40.7706C236.999 38.6318 236.643 35.3791 236.643 31.0124V20.7195C236.643 19.561 236.776 18.5807 237.044 17.7786C237.4 16.9766 237.89 16.3082 238.514 15.7735L255.758 1.20307C256.204 0.846602 256.783 0.579252 257.496 0.401017C258.298 0.133672 259.145 0 260.036 0H280.621C282.76 0 284.32 0.490137 285.3 1.47041C286.28 2.45069 286.77 4.01022 286.77 6.14901V15.3725C286.77 16.1746 286.77 17.0212 286.77 17.9123C286.86 18.7144 287.172 19.4718 287.706 20.1848L289.177 22.3236V20.7195C289.177 19.561 289.31 18.5807 289.578 17.7786C289.934 16.9766 290.424 16.3082 291.048 15.7735L308.292 1.20307C308.738 0.846602 309.317 0.579252 310.03 0.401017C310.832 0.133672 311.678 0 312.57 0H332.888C335.027 0 336.586 0.490137 337.567 1.47041C338.547 2.45069 339.037 4.01022 339.037 6.14901V16.4419C339.037 20.8086 338.681 24.0613 337.968 26.2001C337.255 28.3389 335.829 30.8341 333.69 33.6859L323.397 47.588L333.69 61.2227C335.829 64.0744 337.255 66.5697 337.968 68.7084C338.681 70.8472 339.037 74.1 339.037 78.4667V92.7698C339.037 93.9283 338.859 94.9086 338.502 95.7106C338.235 96.5126 337.789 97.181 337.166 97.7157L319.788 112.153C319.432 112.509 318.852 112.821 318.05 113.088C317.337 113.356 316.535 113.489 315.644 113.489H295.326C293.187 113.489 291.627 112.999 290.647 112.019C289.667 111.039 289.177 109.479 289.177 107.34V94.1065C289.177 93.3045 289.132 92.5024 289.043 91.7004C289.043 90.8983 288.776 90.0963 288.241 89.2943L286.503 86.8881V92.7698C286.503 93.9283 286.325 94.9086 285.968 95.7106C285.701 96.5126 285.256 97.181 284.632 97.7157Z" fill="white"/>
<path d="M417.893 113.489H355.868C353.73 113.489 352.17 112.999 351.19 112.019C350.21 111.039 349.719 109.479 349.719 107.34V20.7195C349.719 19.561 349.853 18.5807 350.121 17.7786C350.477 16.9766 350.967 16.3082 351.591 15.7735L368.835 1.20307C369.28 0.846602 369.86 0.579252 370.573 0.401017C371.375 0.133672 372.221 0 373.112 0H435.137C437.276 0 438.836 0.490137 439.816 1.47041C440.796 2.45069 441.286 4.01022 441.286 6.14901V21.7889C441.286 22.9474 441.108 23.9277 440.751 24.7297C440.484 25.5317 440.039 26.2001 439.415 26.7348L427.919 36.2257C428.81 36.6712 429.434 37.3396 429.79 38.2308C430.236 39.1219 430.459 40.2804 430.459 41.7063V56.0094C430.459 57.1679 430.28 58.1482 429.924 58.9502C429.657 59.7523 429.211 60.4207 428.587 60.9554L416.69 70.9809H435.137C437.276 70.9809 438.836 71.471 439.816 72.4513C440.796 73.4316 441.286 74.9911 441.286 77.1299V92.7698C441.286 93.9283 441.108 94.9086 440.751 95.7106C440.484 96.5126 440.039 97.181 439.415 97.7157L422.037 112.153C421.681 112.509 421.101 112.821 420.299 113.088C419.586 113.356 418.784 113.489 417.893 113.489ZM435.137 97.582C436.83 97.582 438.033 97.2256 438.746 96.5127C439.548 95.7106 439.949 94.463 439.949 92.7698V77.1299C439.949 75.4367 439.548 74.2336 438.746 73.5207C438.033 72.7187 436.83 72.3177 435.137 72.3177H398.243V60.8217H424.31C426.003 60.8217 427.206 60.4652 427.919 59.7523C428.721 58.9502 429.122 57.7026 429.122 56.0094V41.7063C429.122 40.0131 428.721 38.81 427.919 38.0971C427.206 37.2951 426.003 36.894 424.31 36.894H398.243V26.6011H435.137C436.83 26.6011 438.033 26.2447 438.746 25.5317C439.548 24.7297 439.949 23.4821 439.949 21.7889V6.14901C439.949 4.4558 439.548 3.25274 438.746 2.53981C438.033 1.73776 436.83 1.33674 435.137 1.33674H373.112C371.419 1.33674 370.172 1.73776 369.37 2.53981C368.657 3.25274 368.3 4.4558 368.3 6.14901V92.7698C368.3 94.463 368.657 95.7106 369.37 96.5127C370.172 97.2256 371.419 97.582 373.112 97.582H435.137ZM427.919 84.2146V85.5514H382.871V13.3674H427.919V14.7041H384.207V48.2563H417.091V49.5931H384.207V84.2146H427.919Z" fill="white"/>
<path d="M486.723 14.4368L535.915 69.7778V13.3674H537.252V85.5514H535.915V71.783L485.386 15.1052C485.297 15.016 485.163 14.9269 484.985 14.8378C484.896 14.7487 484.807 14.7041 484.718 14.7041C484.629 14.7041 484.539 14.7487 484.45 14.8378C484.45 14.9269 484.45 15.016 484.45 15.1052V85.5514H483.114V14.8378C483.114 14.3031 483.292 13.9021 483.648 13.6348C484.005 13.3674 484.361 13.2337 484.718 13.2337C485.074 13.2337 485.386 13.3228 485.653 13.5011C485.921 13.6793 486.277 13.9912 486.723 14.4368ZM493.941 97.582C495.634 97.582 496.837 97.2256 497.55 96.5127C498.352 95.7106 498.754 94.463 498.754 92.7698V48.6573L521.612 76.3279V92.7698C521.612 94.463 521.968 95.7106 522.681 96.5127C523.483 97.2256 524.731 97.582 526.424 97.582H546.475C548.168 97.582 549.371 97.2256 550.084 96.5127C550.886 95.7106 551.287 94.463 551.287 92.7698V6.14901C551.287 4.4558 550.886 3.25274 550.084 2.53981C549.371 1.73776 548.168 1.33674 546.475 1.33674H526.424C524.731 1.33674 523.483 1.73776 522.681 2.53981C521.968 3.25274 521.612 4.4558 521.612 6.14901V34.6216L495.679 4.94594C494.52 3.6092 493.317 2.67348 492.07 2.13878C490.911 1.60409 489.485 1.33674 487.792 1.33674H473.89C472.197 1.33674 470.949 1.73776 470.147 2.53981C469.434 3.25274 469.078 4.4558 469.078 6.14901V92.7698C469.078 94.463 469.434 95.7106 470.147 96.5127C470.949 97.2256 472.197 97.582 473.89 97.582H493.941ZM498.219 97.7157L480.841 112.153C480.485 112.509 479.905 112.821 479.103 113.088C478.39 113.356 477.588 113.489 476.697 113.489H456.646C454.507 113.489 452.948 112.999 451.968 112.019C450.987 111.039 450.497 109.479 450.497 107.34V20.7195C450.497 19.561 450.631 18.5807 450.898 17.7786C451.255 16.9766 451.745 16.3082 452.369 15.7735L469.613 1.20307C470.058 0.846602 470.637 0.579252 471.35 0.401017C472.152 0.133672 472.999 0 473.89 0H487.792C489.753 0 491.401 0.311905 492.738 0.935714C494.075 1.55953 495.412 2.58436 496.748 4.01022L505.972 14.7041L522.146 1.20307C522.592 0.846602 523.171 0.579252 523.884 0.401017C524.686 0.133672 525.533 0 526.424 0H546.475C548.614 0 550.173 0.490137 551.154 1.47041C552.134 2.45069 552.624 4.01022 552.624 6.14901V92.7698C552.624 93.9283 552.446 94.9086 552.089 95.7106C551.822 96.5126 551.377 97.181 550.753 97.7157L533.375 112.153C533.019 112.509 532.439 112.821 531.637 113.088C530.924 113.356 530.122 113.489 529.231 113.489H509.18C507.041 113.489 505.482 112.999 504.501 112.019C503.521 111.039 503.031 109.479 503.031 107.34V91.433L500.09 87.8238V92.7698C500.09 93.9283 499.912 94.9086 499.556 95.7106C499.288 96.5126 498.843 97.181 498.219 97.7157Z" fill="white"/>
<path d="M629.826 113.489H597.21C585.535 113.489 576.891 110.459 571.277 104.399C565.752 98.3395 562.989 90.4973 562.989 80.8728V43.3104C562.989 38.409 563.702 34.176 565.128 30.6113C566.554 26.9576 568.648 23.9276 571.411 21.5215L588.788 6.95105C591.551 4.63403 595.071 2.89627 599.348 1.73776C603.626 0.579255 608.661 0 614.454 0H647.07C649.209 0 650.768 0.490137 651.749 1.47041C652.729 2.45069 653.219 4.01022 653.219 6.14901V22.3236C653.219 23.4821 653.041 24.4623 652.684 25.2644C652.417 26.0664 651.971 26.7348 651.348 27.2695L633.97 41.7063C633.614 42.0628 633.034 42.3747 632.232 42.642C631.519 42.9094 630.717 43.043 629.826 43.043H613.384V65.6339C613.384 67.5054 613.963 68.8421 615.122 69.6442C616.28 70.3571 617.974 70.7136 620.202 70.7136H647.07C649.209 70.7136 650.768 71.2037 651.749 72.184C652.729 73.1643 653.219 74.7238 653.219 76.8626V92.7698C653.219 93.9283 653.041 94.9086 652.684 95.7106C652.417 96.5126 651.971 97.181 651.348 97.7157L633.97 112.153C633.614 112.509 633.034 112.821 632.232 113.088C631.519 113.356 630.717 113.489 629.826 113.489ZM647.07 97.582C648.763 97.582 649.966 97.2256 650.679 96.5127C651.481 95.7106 651.882 94.463 651.882 92.7698V76.8626C651.882 75.1694 651.481 73.9663 650.679 73.2534C649.966 72.4513 648.763 72.0503 647.07 72.0503H620.202C617.439 72.0503 615.389 71.5602 614.053 70.5799C612.716 69.5105 612.047 67.8618 612.047 65.6339V33.8195C612.047 31.5916 612.716 29.943 614.053 28.8736C615.389 27.7151 617.439 27.1358 620.202 27.1358H647.07C648.763 27.1358 649.966 26.7794 650.679 26.0664C651.481 25.2644 651.882 24.0168 651.882 22.3236V6.14901C651.882 4.4558 651.481 3.25274 650.679 2.53981C649.966 1.73776 648.763 1.33674 647.07 1.33674H614.454C603.314 1.33674 595.026 3.6092 589.59 8.15411C584.243 12.6099 581.57 19.4718 581.57 28.7399V70.3125C581.57 79.5806 584.243 86.4425 589.59 90.8983C595.026 95.3541 603.314 97.582 614.454 97.582H647.07ZM639.718 84.2146V85.5514H617.394C608.75 85.5514 603.002 84.2146 600.15 81.5412C597.388 78.8677 596.007 74.4564 596.007 68.3074V30.8787C596.007 24.5515 597.432 20.0511 600.284 17.3776C603.136 14.7041 608.839 13.3674 617.394 13.3674H639.718V14.7041H617.394C609.552 14.7041 604.25 15.9518 601.487 18.447C598.725 20.8532 597.343 24.997 597.343 30.8787V68.3074C597.343 74.1 598.68 78.1993 601.354 80.6054C604.027 83.0116 609.374 84.2146 617.394 84.2146H639.718Z" fill="white"/>
<path d="M729.886 113.489H667.862C665.723 113.489 664.163 112.999 663.183 112.019C662.203 111.039 661.713 109.479 661.713 107.34V20.7195C661.713 19.561 661.846 18.5807 662.114 17.7786C662.47 16.9766 662.96 16.3082 663.584 15.7735L680.828 1.20307C681.274 0.846602 681.853 0.579252 682.566 0.401017C683.368 0.133672 684.214 0 685.106 0H747.13C749.269 0 750.829 0.490137 751.809 1.47041C752.789 2.45069 753.279 4.01022 753.279 6.14901V21.7889C753.279 22.9474 753.101 23.9277 752.745 24.7297C752.477 25.5317 752.032 26.2001 751.408 26.7348L739.912 36.2257C740.803 36.6712 741.427 37.3396 741.783 38.2308C742.229 39.1219 742.452 40.2804 742.452 41.7063V56.0094C742.452 57.1679 742.273 58.1482 741.917 58.9502C741.65 59.7523 741.204 60.4207 740.58 60.9554L728.683 70.9809H747.13C749.269 70.9809 750.829 71.471 751.809 72.4513C752.789 73.4316 753.279 74.9911 753.279 77.1299V92.7698C753.279 93.9283 753.101 94.9086 752.745 95.7106C752.477 96.5126 752.032 97.181 751.408 97.7157L734.03 112.153C733.674 112.509 733.095 112.821 732.292 113.088C731.58 113.356 730.778 113.489 729.886 113.489ZM747.13 97.582C748.823 97.582 750.027 97.2256 750.74 96.5127C751.542 95.7106 751.943 94.463 751.943 92.7698V77.1299C751.943 75.4367 751.542 74.2336 750.74 73.5207C750.027 72.7187 748.823 72.3177 747.13 72.3177H710.236V60.8217H736.303C737.996 60.8217 739.199 60.4652 739.912 59.7523C740.714 58.9502 741.115 57.7026 741.115 56.0094V41.7063C741.115 40.0131 740.714 38.81 739.912 38.0971C739.199 37.2951 737.996 36.894 736.303 36.894H710.236V26.6011H747.13C748.823 26.6011 750.027 26.2447 750.74 25.5317C751.542 24.7297 751.943 23.4821 751.943 21.7889V6.14901C751.943 4.4558 751.542 3.25274 750.74 2.53981C750.027 1.73776 748.823 1.33674 747.13 1.33674H685.106C683.412 1.33674 682.165 1.73776 681.363 2.53981C680.65 3.25274 680.293 4.4558 680.293 6.14901V92.7698C680.293 94.463 680.65 95.7106 681.363 96.5127C682.165 97.2256 683.412 97.582 685.106 97.582H747.13ZM739.912 84.2146V85.5514H694.864V13.3674H739.912V14.7041H696.201V48.2563H729.084V49.5931H696.201V84.2146H739.912Z" fill="white"/>
<path d="M65.634 46.1175C67.238 46.1175 68.3966 45.7611 69.1095 45.0482C69.8224 44.3352 70.9364 42.8202 72.4513 40.5032L88.7596 15.6399C89.2943 14.7487 89.8735 14.1694 90.4973 13.9021C91.2103 13.5456 91.9232 13.3674 92.6361 13.3674H94.9086C96.1562 13.3674 97.0474 13.7239 97.5821 14.4368C98.2059 15.0606 98.5178 16.0854 98.5178 17.5113V85.5514H97.181V17.5113C97.181 16.7984 97.0028 16.1746 96.6463 15.6399C96.379 15.016 95.7997 14.7041 94.9086 14.7041H92.9035C92.2796 14.7041 91.745 14.7933 91.2994 14.9715C90.8538 15.1497 90.3637 15.6844 89.829 16.5756L73.5207 41.1716C71.9166 43.5777 70.669 45.2264 69.7779 46.1175C68.9758 47.0087 67.5945 47.4543 65.634 47.4543C63.6734 47.4543 62.2475 47.0087 61.3564 46.1175C60.5543 45.2264 59.3513 43.5777 57.7472 41.1716L41.439 16.5756C40.9043 15.6844 40.3696 15.1497 39.8349 14.9715C39.3893 14.7933 38.8546 14.7041 38.2308 14.7041H36.2257C35.3345 14.7041 34.7553 15.016 34.4879 15.6399C34.2206 16.1746 34.0869 16.7984 34.0869 17.5113V85.5514H32.7501V17.5113C32.7501 16.0854 33.0175 15.0606 33.5522 14.4368C34.176 13.7239 35.0672 13.3674 36.2257 13.3674H38.4981C39.2111 13.3674 39.924 13.5456 40.6369 13.9021C41.3498 14.1694 41.9737 14.7487 42.5083 15.6399L58.8166 40.5032C60.3316 42.8202 61.4455 44.3352 62.1584 45.0482C62.8714 45.7611 64.0299 46.1175 65.634 46.1175ZM43.3104 97.582C45.0036 97.582 46.2067 97.2256 46.9196 96.5127C47.7216 95.7106 48.1227 94.463 48.1227 92.7698V45.7165L56.0094 60.287C56.8115 61.802 57.7472 62.9159 58.8166 63.6288C59.9751 64.2527 61.4009 64.5646 63.0941 64.5646H68.4411C70.1343 64.5646 71.5156 64.2527 72.585 63.6288C73.7435 62.9159 74.7238 61.802 75.5258 60.287L83.4126 45.7165V92.7698C83.4126 94.463 83.7691 95.7106 84.482 96.5127C85.284 97.2256 86.5317 97.582 88.2249 97.582H108.811C110.504 97.582 111.707 97.2256 112.42 96.5127C113.222 95.7106 113.623 94.463 113.623 92.7698V6.14901C113.623 4.4558 113.222 3.25274 112.42 2.53981C111.707 1.73776 110.504 1.33674 108.811 1.33674H87.1555C85.7296 1.33674 84.5266 1.64864 83.5463 2.27245C82.6551 2.89627 81.8085 3.9211 81.0065 5.34696L69.1095 27.1358C68.6639 27.9379 68.2629 28.5171 67.9064 28.8736C67.6391 29.2301 67.238 29.4083 66.7034 29.4083H65.5003C64.9656 29.4083 64.52 29.2301 64.1635 28.8736C63.8962 28.5171 63.5397 27.9379 63.0941 27.1358L51.0635 5.34696C50.2614 3.9211 49.3703 2.89627 48.39 2.27245C47.4988 1.64864 46.3403 1.33674 44.9145 1.33674H23.393C21.6998 1.33674 20.4521 1.73776 19.6501 2.53981C18.9372 3.25274 18.5807 4.4558 18.5807 6.14901V92.7698C18.5807 94.463 18.9372 95.7106 19.6501 96.5127C20.4521 97.2256 21.6998 97.582 23.393 97.582H43.3104ZM47.588 97.7157L30.2103 112.153C29.8539 112.509 29.2746 112.821 28.4726 113.088C27.7596 113.356 26.9576 113.489 26.0664 113.489H6.14901C4.01022 113.489 2.45069 112.999 1.47041 112.019C0.490138 111.039 0 109.479 0 107.34V20.7195C0 19.561 0.133674 18.5807 0.401022 17.7786C0.757486 16.9766 1.24762 16.3082 1.87144 15.7735L19.1154 1.20307C19.561 0.846602 20.1402 0.579252 20.8531 0.401017C21.6552 0.133672 22.5018 0 23.393 0H44.9145C46.6077 0 47.989 0.356462 49.0584 1.06939C50.2169 1.78232 51.2863 2.98538 52.2666 4.67859L61.3564 21.3878L62.5595 19.2491C62.9159 18.6252 63.2724 18.046 63.6288 17.5113C64.0744 16.8875 64.52 16.3973 64.9656 16.0409L82.2095 1.60408C82.9225 1.06939 83.6354 0.668367 84.3483 0.401017C85.1504 0.133672 86.0861 0 87.1555 0H108.811C110.949 0 112.509 0.490137 113.489 1.47041C114.47 2.45069 114.96 4.01022 114.96 6.14901V92.7698C114.96 93.9283 114.781 94.9086 114.425 95.7106C114.158 96.5126 113.712 97.181 113.088 97.7157L95.7106 112.153C95.3541 112.509 94.7749 112.821 93.9729 113.088C93.2599 113.356 92.4579 113.489 91.5667 113.489H70.9809C68.753 113.489 67.1489 112.999 66.1686 112.019C65.2775 111.039 64.8319 109.479 64.8319 107.34V72.0503L56.9451 78.6003C56.2322 79.2241 55.3856 79.7143 54.4053 80.0707C53.5142 80.3381 52.4448 80.4718 51.1972 80.4718H49.4594V92.7698C49.4594 93.9283 49.2812 94.9086 48.9247 95.7106C48.6574 96.5126 48.2118 97.181 47.588 97.7157Z" stroke="white" stroke-width="2" mask="url(#path-2-inside-1_0_1)"/>
<path d="M158.968 57.0788V61.2227H211.101V57.0788C211.101 54.6727 210.878 52.4448 210.432 50.3951C210.076 48.3454 209.586 46.4294 208.962 44.6471L199.738 22.8583C198.758 20.5412 197.733 18.6252 196.664 17.1103C195.594 15.5062 193.812 14.7041 191.317 14.7041H178.217C175.543 14.7041 173.672 15.5062 172.602 17.1103C171.533 18.6252 170.553 20.4967 169.662 22.7246L161.106 44.6471C160.483 46.4294 159.948 48.3454 159.502 50.3951C159.146 52.4448 158.968 54.6727 158.968 57.0788ZM180.356 29.4083C180.712 28.6062 181.068 28.027 181.425 27.6705C181.87 27.3141 182.361 27.1358 182.895 27.1358H186.237C186.772 27.1358 187.217 27.3141 187.574 27.6705C188.02 28.027 188.421 28.6062 188.777 29.4083L195.06 49.7267H174.073L180.356 29.4083ZM211.101 85.5514V62.5594H158.968V85.5514H157.631V57.0788C157.631 54.5836 157.809 52.3111 158.166 50.2614C158.611 48.1226 159.19 46.073 159.903 44.1124L168.459 22.1899C169.439 19.6946 170.553 17.6004 171.8 15.9072C173.048 14.214 175.187 13.3674 178.217 13.3674H191.317C194.258 13.3674 196.307 14.214 197.466 15.9072C198.713 17.6004 199.872 19.7392 200.941 22.3236L210.165 44.1124C210.878 46.073 211.412 48.1226 211.769 50.2614C212.215 52.3111 212.437 54.5836 212.437 57.0788V85.5514H211.101ZM172.736 92.7698V74.0554H196.396V92.7698C196.396 94.463 196.797 95.7106 197.599 96.5127C198.491 97.2256 199.827 97.582 201.61 97.582H221.794C223.488 97.582 224.691 97.2256 225.404 96.5127C226.206 95.7106 226.607 94.463 226.607 92.7698V57.4798C226.607 54.8064 226.161 51.7319 225.27 48.2563C224.468 44.7808 223.176 40.726 221.393 36.092L209.764 5.74798C209.229 4.23301 208.383 3.11906 207.224 2.40613C206.155 1.6932 204.773 1.33674 203.08 1.33674H167.122C165.339 1.33674 163.869 1.6932 162.711 2.40613C161.641 3.11906 160.839 4.23301 160.304 5.74798L148.675 36.092C146.892 40.726 145.556 44.7808 144.665 48.2563C143.863 51.7319 143.461 54.8064 143.461 57.4798V92.7698C143.461 94.463 143.818 95.7106 144.531 96.5127C145.333 97.2256 146.581 97.582 148.274 97.582H167.924C169.617 97.582 170.82 97.2256 171.533 96.5127C172.335 95.7106 172.736 94.463 172.736 92.7698ZM154.824 112.153C154.467 112.509 153.888 112.821 153.086 113.088C152.373 113.356 151.571 113.489 150.68 113.489H131.03C128.891 113.489 127.331 112.999 126.351 112.019C125.371 111.039 124.881 109.479 124.881 107.34V72.0503C124.881 69.2877 125.282 66.1686 126.084 62.6931C126.975 59.1285 128.356 54.94 130.228 50.1278L141.724 19.9174C141.991 19.1154 142.303 18.447 142.659 17.9123C143.105 17.2885 143.551 16.7538 143.996 16.3082L144.13 16.1746L161.24 1.87144C161.953 1.24762 162.8 0.802042 163.78 0.534697C164.76 0.178232 165.874 0 167.122 0H203.08C205.13 0 206.778 0.44558 208.026 1.33674C209.363 2.13878 210.343 3.43096 210.967 5.21328L222.597 35.5573C224.468 40.3696 225.805 44.558 226.607 48.1227C227.498 51.5982 227.943 54.7172 227.943 57.4798V92.7698C227.943 93.9283 227.765 94.9086 227.409 95.7106C227.141 96.5126 226.696 97.181 226.072 97.7157L208.694 112.153C208.338 112.509 207.759 112.821 206.957 113.088C206.244 113.356 205.442 113.489 204.551 113.489H184.366C182.138 113.489 180.489 112.955 179.42 111.885C178.35 110.905 177.816 109.39 177.816 107.34V89.9626H174.073V92.7698C174.073 93.9283 173.895 94.9086 173.538 95.7106C173.271 96.5126 172.825 97.181 172.201 97.7157L154.824 112.153Z" stroke="white" stroke-width="2" mask="url(#path-2-inside-1_0_1)"/>
<path d="M270.863 79.536V85.5514H269.527V79.536C269.527 77.5755 269.571 75.7486 269.66 74.0554C269.838 72.2731 270.462 70.669 271.532 69.2432L287.573 47.3206L271.532 25.6654C270.551 24.2396 269.972 22.68 269.794 20.9868C269.616 19.2045 269.527 17.3331 269.527 15.3725V13.3674H270.863V15.3725C270.863 17.2439 270.952 19.0263 271.131 20.7195C271.309 22.4127 271.844 23.8831 272.735 25.1307L288.776 46.7859H304.683L320.189 25.1307C321.08 23.8831 321.615 22.4127 321.793 20.7195C321.971 19.0263 322.06 17.2439 322.06 15.3725V13.3674H323.397V15.3725C323.397 17.3331 323.308 19.2045 323.13 20.9868C322.952 22.68 322.372 24.2396 321.392 25.6654L305.619 47.588L321.392 69.2432C322.372 70.669 322.952 72.2731 323.13 74.0554C323.308 75.7486 323.397 77.5755 323.397 79.536V85.5514H322.06V79.536C322.06 77.6646 321.971 75.8823 321.793 74.1891C321.615 72.4959 321.08 71.0255 320.189 69.7778L304.549 48.1227H288.508L272.735 69.7778C271.844 70.9364 271.309 72.4068 271.131 74.1891C270.952 75.8823 270.863 77.6646 270.863 79.536ZM285.166 92.7698V79.536C285.166 78.6449 285.211 77.7092 285.3 76.7289C285.389 75.7486 285.746 74.8129 286.369 73.9217L292.385 65.5003C292.92 64.6982 293.41 64.119 293.855 63.7625C294.301 63.4061 294.88 63.2278 295.593 63.2278H297.464C298.177 63.2278 298.757 63.4061 299.202 63.7625C299.648 64.119 300.138 64.6982 300.673 65.5003L306.554 73.9217C307.178 74.8129 307.535 75.7486 307.624 76.7289C307.713 77.7092 307.757 78.6449 307.757 79.536V92.7698C307.757 94.463 308.114 95.7106 308.827 96.5127C309.629 97.2256 310.876 97.582 312.57 97.582H332.888C334.581 97.582 335.784 97.2256 336.497 96.5127C337.299 95.7106 337.7 94.463 337.7 92.7698V78.4667C337.7 74.3673 337.344 71.2928 336.631 69.2432C336.007 67.1935 334.67 64.7874 332.621 62.0248L321.793 47.588L332.621 32.8838C334.581 30.1212 335.918 27.7151 336.631 25.6654C337.344 23.6157 337.7 20.5412 337.7 16.4419V6.14901C337.7 4.4558 337.299 3.25274 336.497 2.53981C335.784 1.73776 334.581 1.33674 332.888 1.33674H312.57C310.876 1.33674 309.629 1.73776 308.827 2.53981C308.114 3.25274 307.757 4.4558 307.757 6.14901V15.3725C307.757 16.2637 307.713 17.1994 307.624 18.1797C307.535 19.1599 307.178 20.0957 306.554 20.9868L300.539 29.4083C300.004 30.1212 299.514 30.7005 299.069 31.146C298.623 31.5025 298.044 31.6807 297.331 31.6807H295.727C295.014 31.6807 294.39 31.5025 293.855 31.146C293.41 30.7005 292.964 30.1212 292.518 29.4083L286.637 20.9868C286.013 20.0957 285.657 19.1599 285.567 18.1797C285.478 17.1994 285.434 16.2637 285.434 15.3725V6.14901C285.434 4.4558 285.033 3.25274 284.231 2.53981C283.518 1.73776 282.315 1.33674 280.621 1.33674H260.036C258.342 1.33674 257.095 1.73776 256.293 2.53981C255.58 3.25274 255.223 4.4558 255.223 6.14901V16.4419C255.223 20.5412 255.535 23.6157 256.159 25.6654C256.872 27.7151 258.253 30.1212 260.303 32.8838L271.131 47.4543L260.303 62.0248C258.342 64.7874 257.006 67.1935 256.293 69.2432C255.58 71.2928 255.223 74.3673 255.223 78.4667V92.7698C255.223 94.463 255.58 95.7106 256.293 96.5127C257.095 97.2256 258.342 97.582 260.036 97.582H280.354C282.047 97.582 283.25 97.2256 283.963 96.5127C284.765 95.7106 285.166 94.463 285.166 92.7698ZM284.632 97.7157L267.254 112.153C266.898 112.509 266.318 112.821 265.516 113.088C264.803 113.356 264.001 113.489 263.11 113.489H242.792C240.653 113.489 239.093 112.999 238.113 112.019C237.133 111.039 236.643 109.479 236.643 107.34V93.0371C236.643 88.6704 236.999 85.4177 237.712 83.2789C238.425 81.1401 239.851 78.6449 241.99 75.7932L252.283 62.0248L241.99 48.2563C239.851 45.4046 238.425 42.9094 237.712 40.7706C236.999 38.6318 236.643 35.3791 236.643 31.0124V20.7195C236.643 19.561 236.776 18.5807 237.044 17.7786C237.4 16.9766 237.89 16.3082 238.514 15.7735L255.758 1.20307C256.204 0.846602 256.783 0.579252 257.496 0.401017C258.298 0.133672 259.145 0 260.036 0H280.621C282.76 0 284.32 0.490137 285.3 1.47041C286.28 2.45069 286.77 4.01022 286.77 6.14901V15.3725C286.77 16.1746 286.77 17.0212 286.77 17.9123C286.86 18.7144 287.172 19.4718 287.706 20.1848L289.177 22.3236V20.7195C289.177 19.561 289.31 18.5807 289.578 17.7786C289.934 16.9766 290.424 16.3082 291.048 15.7735L308.292 1.20307C308.738 0.846602 309.317 0.579252 310.03 0.401017C310.832 0.133672 311.678 0 312.57 0H332.888C335.027 0 336.586 0.490137 337.567 1.47041C338.547 2.45069 339.037 4.01022 339.037 6.14901V16.4419C339.037 20.8086 338.681 24.0613 337.968 26.2001C337.255 28.3389 335.829 30.8341 333.69 33.6859L323.397 47.588L333.69 61.2227C335.829 64.0744 337.255 66.5697 337.968 68.7084C338.681 70.8472 339.037 74.1 339.037 78.4667V92.7698C339.037 93.9283 338.859 94.9086 338.502 95.7106C338.235 96.5126 337.789 97.181 337.166 97.7157L319.788 112.153C319.432 112.509 318.852 112.821 318.05 113.088C317.337 113.356 316.535 113.489 315.644 113.489H295.326C293.187 113.489 291.627 112.999 290.647 112.019C289.667 111.039 289.177 109.479 289.177 107.34V94.1065C289.177 93.3045 289.132 92.5024 289.043 91.7004C289.043 90.8983 288.776 90.0963 288.241 89.2943L286.503 86.8881V92.7698C286.503 93.9283 286.325 94.9086 285.968 95.7106C285.701 96.5126 285.256 97.181 284.632 97.7157Z" stroke="white" stroke-width="2" mask="url(#path-2-inside-1_0_1)"/>
<path d="M417.893 113.489H355.868C353.73 113.489 352.17 112.999 351.19 112.019C350.21 111.039 349.719 109.479 349.719 107.34V20.7195C349.719 19.561 349.853 18.5807 350.121 17.7786C350.477 16.9766 350.967 16.3082 351.591 15.7735L368.835 1.20307C369.28 0.846602 369.86 0.579252 370.573 0.401017C371.375 0.133672 372.221 0 373.112 0H435.137C437.276 0 438.836 0.490137 439.816 1.47041C440.796 2.45069 441.286 4.01022 441.286 6.14901V21.7889C441.286 22.9474 441.108 23.9277 440.751 24.7297C440.484 25.5317 440.039 26.2001 439.415 26.7348L427.919 36.2257C428.81 36.6712 429.434 37.3396 429.79 38.2308C430.236 39.1219 430.459 40.2804 430.459 41.7063V56.0094C430.459 57.1679 430.28 58.1482 429.924 58.9502C429.657 59.7523 429.211 60.4207 428.587 60.9554L416.69 70.9809H435.137C437.276 70.9809 438.836 71.471 439.816 72.4513C440.796 73.4316 441.286 74.9911 441.286 77.1299V92.7698C441.286 93.9283 441.108 94.9086 440.751 95.7106C440.484 96.5126 440.039 97.181 439.415 97.7157L422.037 112.153C421.681 112.509 421.101 112.821 420.299 113.088C419.586 113.356 418.784 113.489 417.893 113.489ZM435.137 97.582C436.83 97.582 438.033 97.2256 438.746 96.5127C439.548 95.7106 439.949 94.463 439.949 92.7698V77.1299C439.949 75.4367 439.548 74.2336 438.746 73.5207C438.033 72.7187 436.83 72.3177 435.137 72.3177H398.243V60.8217H424.31C426.003 60.8217 427.206 60.4652 427.919 59.7523C428.721 58.9502 429.122 57.7026 429.122 56.0094V41.7063C429.122 40.0131 428.721 38.81 427.919 38.0971C427.206 37.2951 426.003 36.894 424.31 36.894H398.243V26.6011H435.137C436.83 26.6011 438.033 26.2447 438.746 25.5317C439.548 24.7297 439.949 23.4821 439.949 21.7889V6.14901C439.949 4.4558 439.548 3.25274 438.746 2.53981C438.033 1.73776 436.83 1.33674 435.137 1.33674H373.112C371.419 1.33674 370.172 1.73776 369.37 2.53981C368.657 3.25274 368.3 4.4558 368.3 6.14901V92.7698C368.3 94.463 368.657 95.7106 369.37 96.5127C370.172 97.2256 371.419 97.582 373.112 97.582H435.137ZM427.919 84.2146V85.5514H382.871V13.3674H427.919V14.7041H384.207V48.2563H417.091V49.5931H384.207V84.2146H427.919Z" stroke="white" stroke-width="2" mask="url(#path-2-inside-1_0_1)"/>
<path d="M486.723 14.4368L535.915 69.7778V13.3674H537.252V85.5514H535.915V71.783L485.386 15.1052C485.297 15.016 485.163 14.9269 484.985 14.8378C484.896 14.7487 484.807 14.7041 484.718 14.7041C484.629 14.7041 484.539 14.7487 484.45 14.8378C484.45 14.9269 484.45 15.016 484.45 15.1052V85.5514H483.114V14.8378C483.114 14.3031 483.292 13.9021 483.648 13.6348C484.005 13.3674 484.361 13.2337 484.718 13.2337C485.074 13.2337 485.386 13.3228 485.653 13.5011C485.921 13.6793 486.277 13.9912 486.723 14.4368ZM493.941 97.582C495.634 97.582 496.837 97.2256 497.55 96.5127C498.352 95.7106 498.754 94.463 498.754 92.7698V48.6573L521.612 76.3279V92.7698C521.612 94.463 521.968 95.7106 522.681 96.5127C523.483 97.2256 524.731 97.582 526.424 97.582H546.475C548.168 97.582 549.371 97.2256 550.084 96.5127C550.886 95.7106 551.287 94.463 551.287 92.7698V6.14901C551.287 4.4558 550.886 3.25274 550.084 2.53981C549.371 1.73776 548.168 1.33674 546.475 1.33674H526.424C524.731 1.33674 523.483 1.73776 522.681 2.53981C521.968 3.25274 521.612 4.4558 521.612 6.14901V34.6216L495.679 4.94594C494.52 3.6092 493.317 2.67348 492.07 2.13878C490.911 1.60409 489.485 1.33674 487.792 1.33674H473.89C472.197 1.33674 470.949 1.73776 470.147 2.53981C469.434 3.25274 469.078 4.4558 469.078 6.14901V92.7698C469.078 94.463 469.434 95.7106 470.147 96.5127C470.949 97.2256 472.197 97.582 473.89 97.582H493.941ZM498.219 97.7157L480.841 112.153C480.485 112.509 479.905 112.821 479.103 113.088C478.39 113.356 477.588 113.489 476.697 113.489H456.646C454.507 113.489 452.948 112.999 451.968 112.019C450.987 111.039 450.497 109.479 450.497 107.34V20.7195C450.497 19.561 450.631 18.5807 450.898 17.7786C451.255 16.9766 451.745 16.3082 452.369 15.7735L469.613 1.20307C470.058 0.846602 470.637 0.579252 471.35 0.401017C472.152 0.133672 472.999 0 473.89 0H487.792C489.753 0 491.401 0.311905 492.738 0.935714C494.075 1.55953 495.412 2.58436 496.748 4.01022L505.972 14.7041L522.146 1.20307C522.592 0.846602 523.171 0.579252 523.884 0.401017C524.686 0.133672 525.533 0 526.424 0H546.475C548.614 0 550.173 0.490137 551.154 1.47041C552.134 2.45069 552.624 4.01022 552.624 6.14901V92.7698C552.624 93.9283 552.446 94.9086 552.089 95.7106C551.822 96.5126 551.377 97.181 550.753 97.7157L533.375 112.153C533.019 112.509 532.439 112.821 531.637 113.088C530.924 113.356 530.122 113.489 529.231 113.489H509.18C507.041 113.489 505.482 112.999 504.501 112.019C503.521 111.039 503.031 109.479 503.031 107.34V91.433L500.09 87.8238V92.7698C500.09 93.9283 499.912 94.9086 499.556 95.7106C499.288 96.5126 498.843 97.181 498.219 97.7157Z" stroke="white" stroke-width="2" mask="url(#path-2-inside-1_0_1)"/>
<path d="M629.826 113.489H597.21C585.535 113.489 576.891 110.459 571.277 104.399C565.752 98.3395 562.989 90.4973 562.989 80.8728V43.3104C562.989 38.409 563.702 34.176 565.128 30.6113C566.554 26.9576 568.648 23.9276 571.411 21.5215L588.788 6.95105C591.551 4.63403 595.071 2.89627 599.348 1.73776C603.626 0.579255 608.661 0 614.454 0H647.07C649.209 0 650.768 0.490137 651.749 1.47041C652.729 2.45069 653.219 4.01022 653.219 6.14901V22.3236C653.219 23.4821 653.041 24.4623 652.684 25.2644C652.417 26.0664 651.971 26.7348 651.348 27.2695L633.97 41.7063C633.614 42.0628 633.034 42.3747 632.232 42.642C631.519 42.9094 630.717 43.043 629.826 43.043H613.384V65.6339C613.384 67.5054 613.963 68.8421 615.122 69.6442C616.28 70.3571 617.974 70.7136 620.202 70.7136H647.07C649.209 70.7136 650.768 71.2037 651.749 72.184C652.729 73.1643 653.219 74.7238 653.219 76.8626V92.7698C653.219 93.9283 653.041 94.9086 652.684 95.7106C652.417 96.5126 651.971 97.181 651.348 97.7157L633.97 112.153C633.614 112.509 633.034 112.821 632.232 113.088C631.519 113.356 630.717 113.489 629.826 113.489ZM647.07 97.582C648.763 97.582 649.966 97.2256 650.679 96.5127C651.481 95.7106 651.882 94.463 651.882 92.7698V76.8626C651.882 75.1694 651.481 73.9663 650.679 73.2534C649.966 72.4513 648.763 72.0503 647.07 72.0503H620.202C617.439 72.0503 615.389 71.5602 614.053 70.5799C612.716 69.5105 612.047 67.8618 612.047 65.6339V33.8195C612.047 31.5916 612.716 29.943 614.053 28.8736C615.389 27.7151 617.439 27.1358 620.202 27.1358H647.07C648.763 27.1358 649.966 26.7794 650.679 26.0664C651.481 25.2644 651.882 24.0168 651.882 22.3236V6.14901C651.882 4.4558 651.481 3.25274 650.679 2.53981C649.966 1.73776 648.763 1.33674 647.07 1.33674H614.454C603.314 1.33674 595.026 3.6092 589.59 8.15411C584.243 12.6099 581.57 19.4718 581.57 28.7399V70.3125C581.57 79.5806 584.243 86.4425 589.59 90.8983C595.026 95.3541 603.314 97.582 614.454 97.582H647.07ZM639.718 84.2146V85.5514H617.394C608.75 85.5514 603.002 84.2146 600.15 81.5412C597.388 78.8677 596.007 74.4564 596.007 68.3074V30.8787C596.007 24.5515 597.432 20.0511 600.284 17.3776C603.136 14.7041 608.839 13.3674 617.394 13.3674H639.718V14.7041H617.394C609.552 14.7041 604.25 15.9518 601.487 18.447C598.725 20.8532 597.343 24.997 597.343 30.8787V68.3074C597.343 74.1 598.68 78.1993 601.354 80.6054C604.027 83.0116 609.374 84.2146 617.394 84.2146H639.718Z" stroke="white" stroke-width="2" mask="url(#path-2-inside-1_0_1)"/>
<path d="M729.886 113.489H667.862C665.723 113.489 664.163 112.999 663.183 112.019C662.203 111.039 661.713 109.479 661.713 107.34V20.7195C661.713 19.561 661.846 18.5807 662.114 17.7786C662.47 16.9766 662.96 16.3082 663.584 15.7735L680.828 1.20307C681.274 0.846602 681.853 0.579252 682.566 0.401017C683.368 0.133672 684.214 0 685.106 0H747.13C749.269 0 750.829 0.490137 751.809 1.47041C752.789 2.45069 753.279 4.01022 753.279 6.14901V21.7889C753.279 22.9474 753.101 23.9277 752.745 24.7297C752.477 25.5317 752.032 26.2001 751.408 26.7348L739.912 36.2257C740.803 36.6712 741.427 37.3396 741.783 38.2308C742.229 39.1219 742.452 40.2804 742.452 41.7063V56.0094C742.452 57.1679 742.273 58.1482 741.917 58.9502C741.65 59.7523 741.204 60.4207 740.58 60.9554L728.683 70.9809H747.13C749.269 70.9809 750.829 71.471 751.809 72.4513C752.789 73.4316 753.279 74.9911 753.279 77.1299V92.7698C753.279 93.9283 753.101 94.9086 752.745 95.7106C752.477 96.5126 752.032 97.181 751.408 97.7157L734.03 112.153C733.674 112.509 733.095 112.821 732.292 113.088C731.58 113.356 730.778 113.489 729.886 113.489ZM747.13 97.582C748.823 97.582 750.027 97.2256 750.74 96.5127C751.542 95.7106 751.943 94.463 751.943 92.7698V77.1299C751.943 75.4367 751.542 74.2336 750.74 73.5207C750.027 72.7187 748.823 72.3177 747.13 72.3177H710.236V60.8217H736.303C737.996 60.8217 739.199 60.4652 739.912 59.7523C740.714 58.9502 741.115 57.7026 741.115 56.0094V41.7063C741.115 40.0131 740.714 38.81 739.912 38.0971C739.199 37.2951 737.996 36.894 736.303 36.894H710.236V26.6011H747.13C748.823 26.6011 750.027 26.2447 750.74 25.5317C751.542 24.7297 751.943 23.4821 751.943 21.7889V6.14901C751.943 4.4558 751.542 3.25274 750.74 2.53981C750.027 1.73776 748.823 1.33674 747.13 1.33674H685.106C683.412 1.33674 682.165 1.73776 681.363 2.53981C680.65 3.25274 680.293 4.4558 680.293 6.14901V92.7698C680.293 94.463 680.65 95.7106 681.363 96.5127C682.165 97.2256 683.412 97.582 685.106 97.582H747.13ZM739.912 84.2146V85.5514H694.864V13.3674H739.912V14.7041H696.201V48.2563H729.084V49.5931H696.201V84.2146H739.912Z" stroke="white" stroke-width="2" mask="url(#path-2-inside-1_0_1)"/>
<defs>
<filter id="filter0_i_0_1" x="0" y="-10" width="768.279" height="123.489" filterUnits="userSpaceOnUse" color-interpolation-filters="sRGB">
<feFlood flood-opacity="0" result="BackgroundImageFix"/>
<feBlend mode="normal" in="SourceGraphic" in2="BackgroundImageFix" result="shape"/>
<feColorMatrix in="SourceAlpha" type="matrix" values="0 0 0 0 0 0 0 0 0 0 0 0 0 0 0 0 0 0 127 0" result="hardAlpha"/>
<feOffset dx="15" dy="-10"/>
<feGaussianBlur stdDeviation="15"/>
<feComposite in2="hardAlpha" operator="arithmetic" k2="-1" k3="1"/>
<feColorMatrix type="matrix" values="0 0 0 0 0 0 0 0 0 0 0 0 0 0 0 0 0 0 0.5 0"/>
<feBlend mode="normal" in2="shape" result="effect1_innerShadow_0_1"/>
</filter>
<linearGradient id="gradient" x1="5.79254" y1="45.8947" x2="737.115" y2="-24.669" gradientUnits="userSpaceOnUse">
<stop stop-color="#9024B4"/>
<stop offset="1" stop-color="#D638E4"/>
</linearGradient>
</defs>
</svg>
