<svg xmlns="http://www.w3.org/2000/svg" fill="none" viewBox="7.326 8.130841121495326 793.65 160.17757009345794" style="max-height: 500px" width="793.65" height="160.17757009345794">
<g filter="url(#filter0_d_373_1323)">
<path shape-rendering="crispEdges" fill-opacity="0.38" fill="url(#paint0_linear_373_1323)" d="M70.4077 125.005C72.1009 125.005 73.304 124.648 74.0169 123.935C74.8189 123.133 75.22 121.886 75.22 120.193V73.1393L83.1067 87.7097C83.9088 89.2247 84.8445 90.3386 85.9139 91.0516C87.0724 91.6754 88.4982 91.9873 90.1915 91.9873H95.5384C97.2316 91.9873 98.6129 91.6754 99.6823 91.0516C100.841 90.3386 101.821 89.2247 102.623 87.7097L110.51 73.1393V120.193C110.51 121.886 110.866 123.133 111.579 123.935C112.381 124.648 113.629 125.005 115.322 125.005H135.908C137.601 125.005 138.804 124.648 139.517 123.935C140.319 123.133 140.72 121.886 140.72 120.193V33.5717C140.72 31.8785 140.319 30.6755 139.517 29.9625C138.804 29.1605 137.601 28.7595 135.908 28.7595H114.253C112.827 28.7595 111.624 29.0714 110.644 29.6952C109.752 30.319 108.906 31.3438 108.104 32.7697L96.2068 54.5586C95.7612 55.3606 95.3602 55.9399 95.0037 56.2963C94.7364 56.6528 94.3354 56.831 93.8007 56.831H92.5976C92.0629 56.831 91.6173 56.6528 91.2609 56.2963C90.9935 55.9399 90.637 55.3606 90.1915 54.5586L78.1608 32.7697C77.3587 31.3438 76.4676 30.319 75.4873 29.6952C74.5961 29.0714 73.4376 28.7595 72.0118 28.7595H50.4903C48.7971 28.7595 47.5494 29.1605 46.7474 29.9625C46.0345 30.6755 45.678 31.8785 45.678 33.5717V120.193C45.678 121.886 46.0345 123.133 46.7474 123.935C47.5494 124.648 48.7971 125.005 50.4903 125.005H70.4077Z"/>
<path shape-rendering="crispEdges" fill-opacity="0.38" fill="url(#paint1_linear_373_1323)" d="M74.6856 125.138L57.308 139.575C56.9515 139.932 56.3723 140.244 55.5702 140.511C54.8573 140.778 54.0553 140.912 53.1641 140.912H33.2467C31.1079 140.912 29.5483 140.422 28.5681 139.442C27.5878 138.461 27.0977 136.902 27.0977 134.763V48.1422C27.0977 46.9837 27.2313 46.0034 27.4987 45.2014C27.8551 44.3993 28.3453 43.731 28.9691 43.1963L46.213 28.6258C46.6586 28.2693 47.2379 28.002 47.9508 27.8237C48.7528 27.5564 49.5995 27.4227 50.4906 27.4227H72.0121C73.7053 27.4227 75.0866 27.7792 76.156 28.4921C77.3145 29.205 78.3839 30.4081 79.3642 32.1013L88.454 48.8106L89.6571 46.6718C90.0136 46.048 90.37 45.4687 90.7265 44.934C91.1721 44.3102 91.6177 43.8201 92.0632 43.4636L109.307 29.0268C110.02 28.4921 110.733 28.0911 111.446 27.8237C112.248 27.5564 113.184 27.4227 114.253 27.4227H135.908C138.047 27.4227 139.607 27.9129 140.587 28.8931C141.567 29.8734 142.057 31.433 142.057 33.5717V120.193C142.057 121.351 141.879 122.331 141.523 123.133C141.255 123.935 140.81 124.604 140.186 125.138L122.808 139.575C122.452 139.932 121.873 140.244 121.071 140.511C120.358 140.778 119.556 140.912 118.664 140.912H98.0786C95.8507 140.912 94.2466 140.422 93.2663 139.442C92.3751 138.461 91.9296 136.902 91.9296 134.763V99.473L84.0428 106.023C83.3299 106.647 82.4833 107.137 81.503 107.493C80.6118 107.761 79.5424 107.895 78.2948 107.895H76.5571V120.193C76.5571 121.351 76.3788 122.331 76.0224 123.133C75.755 123.935 75.3094 124.604 74.6856 125.138Z"/>
<path shape-rendering="crispEdges" fill-opacity="0.38" fill="url(#paint2_linear_373_1323)" d="M199.833 120.193V101.478H223.494V120.193C223.494 121.886 223.895 123.133 224.697 123.935C225.588 124.648 226.925 125.005 228.707 125.005H248.892C250.585 125.005 251.788 124.648 252.501 123.935C253.303 123.133 253.704 121.886 253.704 120.193V84.9026C253.704 82.2291 253.258 79.1546 252.367 75.6791C251.565 72.2035 250.273 68.1488 248.491 63.5147L236.861 33.1707C236.326 31.6557 235.48 30.5418 234.321 29.8289C233.252 29.1159 231.871 28.7595 230.177 28.7595H194.219C192.437 28.7595 190.966 29.1159 189.808 29.8289C188.738 30.5418 187.936 31.6557 187.402 33.1707L175.772 63.5147C173.99 68.1488 172.653 72.2035 171.762 75.6791C170.96 79.1546 170.559 82.2291 170.559 84.9026V120.193C170.559 121.886 170.915 123.133 171.628 123.935C172.43 124.648 173.678 125.005 175.371 125.005H195.021C196.714 125.005 197.917 124.648 198.63 123.935C199.432 123.133 199.833 121.886 199.833 120.193Z"/>
<path shape-rendering="crispEdges" fill-opacity="0.38" fill="url(#paint3_linear_373_1323)" d="M181.921 139.575C181.565 139.932 180.986 140.244 180.184 140.511C179.471 140.778 178.669 140.912 177.778 140.912H158.127C155.989 140.912 154.429 140.422 153.449 139.442C152.469 138.461 151.978 136.902 151.978 134.763V99.473C151.978 96.7104 152.379 93.5914 153.182 90.1158C154.073 86.5512 155.454 82.3628 157.325 77.5505L168.821 47.3402C169.089 46.5381 169.401 45.8697 169.757 45.3351C170.203 44.7112 170.648 44.1765 171.094 43.731L171.228 43.5973L188.338 29.2942C189.051 28.6704 189.897 28.2248 190.878 27.9574C191.858 27.601 192.972 27.4227 194.219 27.4227H230.178C232.227 27.4227 233.876 27.8683 235.124 28.7595C236.46 29.5615 237.441 30.8537 238.065 32.636L249.694 62.98C251.566 67.7923 252.902 71.9807 253.704 75.5454C254.596 79.0209 255.041 82.14 255.041 84.9026V120.193C255.041 121.351 254.863 122.331 254.506 123.133C254.239 123.935 253.794 124.604 253.17 125.138L235.792 139.575C235.436 139.932 234.856 140.244 234.054 140.511C233.341 140.778 232.539 140.912 231.648 140.912H211.463C209.235 140.912 207.587 140.377 206.517 139.308C205.448 138.328 204.913 136.813 204.913 134.763V117.385H201.17V120.193C201.17 121.351 200.992 122.331 200.636 123.133C200.368 123.935 199.923 124.604 199.299 125.138L181.921 139.575Z"/>
<path shape-rendering="crispEdges" fill-opacity="0.38" fill="url(#paint4_linear_373_1323)" d="M297.962 106.959V112.974H296.625V106.959C296.625 104.998 296.669 103.171 296.759 101.478C296.937 99.6958 297.561 98.0917 298.63 96.6659L314.671 74.7433L298.63 53.0881C297.65 51.6623 297.07 50.1028 296.892 48.4096C296.714 46.6272 296.625 44.7558 296.625 42.7952V40.7901H297.962V42.7952C297.962 44.6667 298.051 46.449 298.229 48.1422C298.407 49.8354 298.942 51.3058 299.833 52.5534L315.874 74.2086H331.781L347.287 52.5534C348.179 51.3058 348.713 49.8354 348.891 48.1422C349.07 46.449 349.159 44.6667 349.159 42.7952V40.7901H350.496V42.7952C350.496 44.7558 350.406 46.6272 350.228 48.4096C350.05 50.1028 349.471 51.6623 348.49 53.0881L332.717 75.0107L348.49 96.6659C349.471 98.0917 350.05 99.6958 350.228 101.478C350.406 103.171 350.496 104.998 350.496 106.959V112.974H349.159V106.959C349.159 105.087 349.07 103.305 348.891 101.612C348.713 99.9186 348.179 98.4482 347.287 97.2006L331.648 75.5454H315.607L299.833 97.2006C298.942 98.3591 298.407 99.8295 298.229 101.612C298.051 103.305 297.962 105.087 297.962 106.959Z"/>
<path shape-rendering="crispEdges" fill-opacity="0.38" fill="url(#paint5_linear_373_1323)" d="M312.264 120.193V106.959C312.264 106.068 312.309 105.132 312.398 104.152C312.487 103.171 312.843 102.236 313.467 101.344L319.482 92.923C320.017 92.121 320.507 91.5417 320.953 91.1852C321.398 90.8288 321.978 90.6506 322.691 90.6506H324.562C325.275 90.6506 325.854 90.8288 326.3 91.1852C326.745 91.5417 327.236 92.121 327.77 92.923L333.652 101.344C334.276 102.236 334.632 103.171 334.721 104.152C334.81 105.132 334.855 106.068 334.855 106.959V120.193C334.855 121.886 335.211 123.133 335.924 123.935C336.726 124.648 337.974 125.005 339.667 125.005H359.986C361.679 125.005 362.882 124.648 363.595 123.935C364.397 123.133 364.798 121.886 364.798 120.193V105.889C364.798 101.79 364.441 98.7155 363.729 96.6659C363.105 94.6162 361.768 92.2101 359.718 89.4475L348.891 75.0107L359.718 60.3065C361.679 57.5439 363.016 55.1378 363.729 53.0881C364.441 51.0385 364.798 47.964 364.798 43.8646V33.5717C364.798 31.8785 364.397 30.6755 363.595 29.9625C362.882 29.1605 361.679 28.7595 359.986 28.7595H339.667C337.974 28.7595 336.726 29.1605 335.924 29.9625C335.211 30.6755 334.855 31.8785 334.855 33.5717V42.7952C334.855 43.6864 334.81 44.6221 334.721 45.6024C334.632 46.5827 334.276 47.5184 333.652 48.4096L327.637 56.831C327.102 57.5439 326.612 58.1232 326.166 58.5688C325.721 58.9252 325.141 59.1035 324.428 59.1035H322.824C322.111 59.1035 321.488 58.9252 320.953 58.5688C320.507 58.1232 320.062 57.5439 319.616 56.831L313.734 48.4096C313.111 47.5184 312.754 46.5827 312.665 45.6024C312.576 44.6221 312.531 43.6864 312.531 42.7952V33.5717C312.531 31.8785 312.13 30.6755 311.328 29.9625C310.615 29.1605 309.412 28.7595 307.719 28.7595H287.133C285.44 28.7595 284.193 29.1605 283.39 29.9625C282.678 30.6755 282.321 31.8785 282.321 33.5717V43.8646C282.321 47.964 282.633 51.0385 283.257 53.0881C283.97 55.1378 285.351 57.5439 287.401 60.3065L298.228 74.877L287.401 89.4475C285.44 92.2101 284.103 94.6162 283.39 96.6659C282.678 98.7155 282.321 101.79 282.321 105.889V120.193C282.321 121.886 282.678 123.133 283.39 123.935C284.193 124.648 285.44 125.005 287.133 125.005H307.452C309.145 125.005 310.348 124.648 311.061 123.935C311.863 123.133 312.264 121.886 312.264 120.193Z"/>
<path shape-rendering="crispEdges" fill-opacity="0.38" fill="url(#paint6_linear_373_1323)" d="M311.73 125.138L294.352 139.575C293.996 139.932 293.416 140.244 292.614 140.511C291.901 140.778 291.099 140.912 290.208 140.912H269.89C267.751 140.912 266.191 140.422 265.211 139.442C264.231 138.461 263.741 136.902 263.741 134.763V120.46C263.741 116.093 264.097 112.84 264.81 110.702C265.523 108.563 266.949 106.068 269.088 103.216L279.381 89.4475L269.088 75.6791C266.949 72.8273 265.523 70.3321 264.81 68.1933C264.097 66.0545 263.741 62.8018 263.741 58.4351V48.1422C263.741 46.9837 263.874 46.0034 264.142 45.2014C264.498 44.3993 264.988 43.731 265.612 43.1963L282.856 28.6258C283.302 28.2693 283.881 28.002 284.594 27.8237C285.396 27.5564 286.243 27.4227 287.134 27.4227H307.72C309.858 27.4227 311.418 27.9129 312.398 28.8931C313.378 29.8734 313.868 31.433 313.868 33.5717V42.7952C313.868 43.5973 313.868 44.4439 313.868 45.3351C313.958 46.1371 314.27 46.8946 314.804 47.6075L316.275 49.7463V48.1422C316.275 46.9837 316.408 46.0034 316.676 45.2014C317.032 44.3993 317.522 43.731 318.146 43.1963L335.39 28.6258C335.836 28.2693 336.415 28.002 337.128 27.8237C337.93 27.5564 338.776 27.4227 339.668 27.4227H359.986C362.125 27.4227 363.684 27.9129 364.665 28.8931C365.645 29.8734 366.135 31.433 366.135 33.5717V43.8646C366.135 48.2313 365.779 51.4841 365.066 53.6228C364.353 55.7616 362.927 58.2569 360.788 61.1086L350.495 75.0107L360.788 88.6454C362.927 91.4971 364.353 93.9924 365.066 96.1312C365.779 98.27 366.135 101.523 366.135 105.889V120.193C366.135 121.351 365.957 122.331 365.6 123.133C365.333 123.935 364.887 124.604 364.264 125.138L346.886 139.575C346.53 139.932 345.95 140.244 345.148 140.511C344.435 140.778 343.633 140.912 342.742 140.912H322.424C320.285 140.912 318.725 140.422 317.745 139.442C316.765 138.461 316.275 136.902 316.275 134.763V121.529C316.275 120.727 316.23 119.925 316.141 119.123C316.141 118.321 315.874 117.519 315.339 116.717L313.601 114.311V120.193C313.601 121.351 313.423 122.331 313.066 123.133C312.799 123.935 312.354 124.604 311.73 125.138Z"/>
<path shape-rendering="crispEdges" fill-opacity="0.38" fill="url(#paint7_linear_373_1323)" d="M444.991 140.912H382.966C380.827 140.912 379.268 140.422 378.288 139.442C377.307 138.461 376.817 136.902 376.817 134.763V48.1422C376.817 46.9837 376.951 46.0034 377.218 45.2014C377.575 44.3993 378.065 43.731 378.689 43.1963L395.933 28.6258C396.378 28.2693 396.957 28.002 397.67 27.8237C398.472 27.5564 399.319 27.4227 400.21 27.4227H462.235C464.374 27.4227 465.933 27.9129 466.913 28.8931C467.894 29.8734 468.384 31.433 468.384 33.5717V49.2116C468.384 50.3701 468.206 51.3504 467.849 52.1524C467.582 52.9545 467.136 53.6228 466.512 54.1575L455.016 63.6484C455.908 64.094 456.531 64.7623 456.888 65.6535C457.333 66.5447 457.556 67.7032 457.556 69.129V83.4321C457.556 84.5907 457.378 85.5709 457.022 86.373C456.754 87.175 456.309 87.8434 455.685 88.3781L443.788 98.4036H462.235C464.374 98.4036 465.933 98.8938 466.913 99.8741C467.894 100.854 468.384 102.414 468.384 104.553V120.193C468.384 121.351 468.206 122.331 467.849 123.133C467.582 123.935 467.136 124.604 466.512 125.138L449.135 139.575C448.778 139.932 448.199 140.244 447.397 140.511C446.684 140.778 445.882 140.912 444.991 140.912Z"/>
<path shape-rendering="crispEdges" fill-opacity="0.38" fill="url(#paint8_linear_373_1323)" d="M462.234 125.005C463.928 125.005 465.131 124.648 465.844 123.935C466.646 123.133 467.047 121.886 467.047 120.193V104.553C467.047 102.859 466.646 101.656 465.844 100.943C465.131 100.141 463.928 99.7404 462.234 99.7404H425.34V88.2444H451.407C453.1 88.2444 454.303 87.888 455.016 87.175C455.818 86.373 456.219 85.1254 456.219 83.4321V69.129C456.219 67.4358 455.818 66.2328 455.016 65.5198C454.303 64.7178 453.1 64.3168 451.407 64.3168H425.34V54.0239H462.234C463.928 54.0239 465.131 53.6674 465.844 52.9545C466.646 52.1524 467.047 50.9048 467.047 49.2116V33.5717C467.047 31.8785 466.646 30.6755 465.844 29.9625C465.131 29.1605 463.928 28.7595 462.234 28.7595H400.21C398.517 28.7595 397.269 29.1605 396.467 29.9625C395.754 30.6755 395.397 31.8785 395.397 33.5717V120.193C395.397 121.886 395.754 123.133 396.467 123.935C397.269 124.648 398.517 125.005 400.21 125.005H462.234Z"/>
<path shape-rendering="crispEdges" fill-opacity="0.38" fill="url(#paint9_linear_373_1323)" d="M455.016 111.637V112.974H409.968V40.7901H455.016V42.1269H411.304V75.6791H444.188V77.0158H411.304V111.637H455.016Z"/>
<path shape-rendering="crispEdges" fill-opacity="0.38" fill="url(#paint10_linear_373_1323)" d="M513.82 41.8595L563.012 97.2006V40.7901H564.349V112.974H563.012V99.2057L512.483 42.5279C512.394 42.4388 512.261 42.3496 512.082 42.2605C511.993 42.1714 511.904 42.1269 511.815 42.1269C511.726 42.1269 511.637 42.1714 511.548 42.2605C511.548 42.3496 511.548 42.4388 511.548 42.5279V112.974H510.211V42.2605C510.211 41.7258 510.389 41.3248 510.746 41.0575C511.102 40.7901 511.459 40.6564 511.815 40.6564C512.172 40.6564 512.483 40.7456 512.751 40.9238C513.018 41.102 513.375 41.4139 513.82 41.8595Z"/>
<path shape-rendering="crispEdges" fill-opacity="0.38" fill="url(#paint11_linear_373_1323)" d="M521.039 125.005C522.732 125.005 523.935 124.648 524.648 123.935C525.45 123.133 525.851 121.886 525.851 120.193V76.0801L548.709 103.751V120.193C548.709 121.886 549.066 123.133 549.779 123.935C550.581 124.648 551.828 125.005 553.521 125.005H573.572C575.266 125.005 576.469 124.648 577.182 123.935C577.984 123.133 578.385 121.886 578.385 120.193V33.5717C578.385 31.8785 577.984 30.6755 577.182 29.9625C576.469 29.1605 575.266 28.7595 573.572 28.7595H553.521C551.828 28.7595 550.581 29.1605 549.779 29.9625C549.066 30.6755 548.709 31.8785 548.709 33.5717V62.0443L522.776 32.3687C521.618 31.0319 520.415 30.0962 519.167 29.5615C518.009 29.0268 516.583 28.7595 514.89 28.7595H500.987C499.294 28.7595 498.047 29.1605 497.245 29.9625C496.532 30.6755 496.175 31.8785 496.175 33.5717V120.193C496.175 121.886 496.532 123.133 497.245 123.935C498.047 124.648 499.294 125.005 500.987 125.005H521.039Z"/>
<path shape-rendering="crispEdges" fill-opacity="0.38" fill="url(#paint12_linear_373_1323)" d="M525.316 125.138L507.939 139.575C507.582 139.932 507.003 140.244 506.201 140.511C505.488 140.778 504.686 140.912 503.795 140.912H483.744C481.605 140.912 480.046 140.422 479.065 139.442C478.085 138.461 477.595 136.902 477.595 134.763V48.1422C477.595 46.9837 477.729 46.0034 477.996 45.2014C478.352 44.3993 478.842 43.731 479.466 43.1963L496.71 28.6258C497.156 28.2693 497.735 28.002 498.448 27.8237C499.25 27.5564 500.097 27.4227 500.988 27.4227H514.89C516.85 27.4227 518.499 27.7346 519.836 28.3584C521.173 28.9823 522.509 30.0071 523.846 31.4329L533.07 42.1269L549.244 28.6258C549.69 28.2693 550.269 28.002 550.982 27.8237C551.784 27.5564 552.631 27.4227 553.522 27.4227H573.573C575.712 27.4227 577.271 27.9129 578.251 28.8931C579.232 29.8734 579.722 31.433 579.722 33.5717V120.193C579.722 121.351 579.544 122.331 579.187 123.133C578.92 123.935 578.474 124.604 577.85 125.138L560.473 139.575C560.116 139.932 559.537 140.244 558.735 140.511C558.022 140.778 557.22 140.912 556.329 140.912H536.278C534.139 140.912 532.579 140.422 531.599 139.442C530.619 138.461 530.129 136.902 530.129 134.763V118.856L527.188 115.247V120.193C527.188 121.351 527.01 122.331 526.653 123.133C526.386 123.935 525.94 124.604 525.316 125.138Z"/>
<path shape-rendering="crispEdges" fill-opacity="0.38" fill="url(#paint13_linear_373_1323)" d="M656.923 140.912H624.307C612.633 140.912 603.989 137.882 598.374 131.822C592.849 125.762 590.086 117.92 590.086 108.296V70.7331C590.086 65.8317 590.799 61.5987 592.225 58.0341C593.651 54.3803 595.745 51.3504 598.508 48.9443L615.885 34.3738C618.648 32.0568 622.168 30.319 626.446 29.1605C630.723 28.002 635.758 27.4227 641.551 27.4227H674.167C676.306 27.4227 677.866 27.9129 678.846 28.8931C679.826 29.8734 680.316 31.433 680.316 33.5717V49.7463C680.316 50.9048 680.138 51.8851 679.782 52.6871C679.514 53.4892 679.069 54.1575 678.445 54.6922L661.067 69.129C660.711 69.4855 660.132 69.7974 659.33 70.0647C658.617 70.3321 657.815 70.4658 656.923 70.4658H640.482V93.0567C640.482 94.9281 641.061 96.2649 642.219 97.0669C643.378 97.7798 645.071 98.1363 647.299 98.1363H674.167C676.306 98.1363 677.866 98.6264 678.846 99.6067C679.826 100.587 680.316 102.147 680.316 104.285V120.193C680.316 121.351 680.138 122.331 679.782 123.133C679.514 123.935 679.069 124.604 678.445 125.138L661.067 139.575C660.711 139.932 660.132 140.244 659.33 140.511C658.617 140.778 657.815 140.912 656.923 140.912Z"/>
<path shape-rendering="crispEdges" fill-opacity="0.38" fill="url(#paint14_linear_373_1323)" d="M674.167 125.005C675.86 125.005 677.063 124.648 677.776 123.935C678.578 123.133 678.979 121.886 678.979 120.193V104.285C678.979 102.592 678.578 101.389 677.776 100.676C677.063 99.8741 675.86 99.473 674.167 99.473H647.299C644.536 99.473 642.486 98.9829 641.15 98.0026C639.813 96.9332 639.144 95.2846 639.144 93.0567V61.2423C639.144 59.0144 639.813 57.3657 641.15 56.2963C642.486 55.1378 644.536 54.5586 647.299 54.5586H674.167C675.86 54.5586 677.063 54.2021 677.776 53.4892C678.578 52.6871 678.979 51.4395 678.979 49.7463V33.5717C678.979 31.8785 678.578 30.6755 677.776 29.9625C677.063 29.1605 675.86 28.7595 674.167 28.7595H641.551C630.411 28.7595 622.123 31.0319 616.687 35.5768C611.34 40.0326 608.667 46.8946 608.667 56.1626V97.7353C608.667 107.003 611.34 113.865 616.687 118.321C622.123 122.777 630.411 125.005 641.551 125.005H674.167Z"/>
<path shape-rendering="crispEdges" fill-opacity="0.38" fill="url(#paint15_linear_373_1323)" d="M666.816 111.637V112.974H644.492C635.848 112.974 630.1 111.637 627.248 108.964C624.486 106.29 623.105 101.879 623.105 95.7302V58.3014C623.105 51.9742 624.53 47.4738 627.382 44.8004C630.234 42.1269 635.937 40.7901 644.492 40.7901H666.816V42.1269H644.492C636.65 42.1269 631.348 43.3745 628.585 45.8698C625.823 48.2759 624.441 52.4198 624.441 58.3014V95.7302C624.441 101.523 625.778 105.622 628.452 108.028C631.125 110.434 636.472 111.637 644.492 111.637H666.816Z"/>
<path shape-rendering="crispEdges" fill-opacity="0.38" fill="url(#paint16_linear_373_1323)" d="M756.984 140.912H694.959C692.82 140.912 691.261 140.422 690.281 139.442C689.3 138.461 688.81 136.902 688.81 134.763V48.1422C688.81 46.9837 688.944 46.0034 689.211 45.2014C689.568 44.3993 690.058 43.731 690.682 43.1963L707.926 28.6258C708.371 28.2693 708.951 28.002 709.663 27.8237C710.465 27.5564 711.312 27.4227 712.203 27.4227H774.228C776.367 27.4227 777.926 27.9129 778.907 28.8931C779.887 29.8734 780.377 31.433 780.377 33.5717V49.2116C780.377 50.3701 780.199 51.3504 779.842 52.1524C779.575 52.9545 779.129 53.6228 778.506 54.1575L767.01 63.6484C767.901 64.094 768.525 64.7623 768.881 65.6535C769.327 66.5447 769.549 67.7032 769.549 69.129V83.4321C769.549 84.5907 769.371 85.5709 769.015 86.373C768.747 87.175 768.302 87.8434 767.678 88.3781L755.781 98.4036H774.228C776.367 98.4036 777.926 98.8938 778.907 99.8741C779.887 100.854 780.377 102.414 780.377 104.553V120.193C780.377 121.351 780.199 122.331 779.842 123.133C779.575 123.935 779.129 124.604 778.506 125.138L761.128 139.575C760.771 139.932 760.192 140.244 759.39 140.511C758.677 140.778 757.875 140.912 756.984 140.912Z"/>
<path shape-rendering="crispEdges" fill-opacity="0.38" fill="url(#paint17_linear_373_1323)" d="M774.228 125.005C775.921 125.005 777.124 124.648 777.837 123.935C778.639 123.133 779.04 121.886 779.04 120.193V104.553C779.04 102.859 778.639 101.656 777.837 100.943C777.124 100.141 775.921 99.7404 774.228 99.7404H737.334V88.2444H763.4C765.093 88.2444 766.296 87.888 767.009 87.175C767.811 86.373 768.212 85.1254 768.212 83.4321V69.129C768.212 67.4358 767.811 66.2328 767.009 65.5198C766.296 64.7178 765.093 64.3168 763.4 64.3168H737.334V54.0239H774.228C775.921 54.0239 777.124 53.6674 777.837 52.9545C778.639 52.1524 779.04 50.9048 779.04 49.2116V33.5717C779.04 31.8785 778.639 30.6755 777.837 29.9625C777.124 29.1605 775.921 28.7595 774.228 28.7595H712.203C710.51 28.7595 709.262 29.1605 708.46 29.9625C707.747 30.6755 707.391 31.8785 707.391 33.5717V120.193C707.391 121.886 707.747 123.133 708.46 123.935C709.262 124.648 710.51 125.005 712.203 125.005H774.228Z"/>
<path shape-rendering="crispEdges" fill-opacity="0.38" fill="url(#paint18_linear_373_1323)" d="M767.009 111.637V112.974H721.961V40.7901H767.009V42.1269H723.297V75.6791H756.181V77.0158H723.297V111.637H767.009Z"/>
</g>
<g filter="url(#filter1_d_373_1323)">
<path fill="white" d="M92.7316 73.5403C94.3357 73.5403 95.4942 73.1838 96.2071 72.4709C96.9201 71.7579 98.034 70.243 99.549 67.926L115.857 43.0626C116.392 42.1714 116.971 41.5922 117.595 41.3248C118.308 40.9684 119.021 40.7901 119.734 40.7901H122.006C123.254 40.7901 124.145 41.1466 124.68 41.8595C125.304 42.4833 125.615 43.5082 125.615 44.934V112.974H124.279V44.934C124.279 44.2211 124.1 43.5973 123.744 43.0626C123.477 42.4388 122.897 42.1269 122.006 42.1269H120.001C119.377 42.1269 118.843 42.216 118.397 42.3942C117.951 42.5724 117.461 43.1071 116.927 43.9983L100.618 68.5943C99.0143 71.0005 97.7667 72.6491 96.8755 73.5403C96.0735 74.4314 94.6922 74.877 92.7316 74.877C90.7711 74.877 89.3452 74.4314 88.454 73.5403C87.652 72.6491 86.4489 71.0005 84.8448 68.5943L68.5366 43.9983C68.0019 43.1071 67.4672 42.5724 66.9325 42.3942C66.4869 42.216 65.9522 42.1269 65.3284 42.1269H63.3233C62.4322 42.1269 61.8529 42.4388 61.5856 43.0626C61.3182 43.5973 61.1845 44.2211 61.1845 44.934V112.974H59.8478V44.934C59.8478 43.5082 60.1151 42.4833 60.6498 41.8595C61.2737 41.1466 62.1648 40.7901 63.3233 40.7901H65.5958C66.3087 40.7901 67.0216 40.9684 67.7346 41.3248C68.4475 41.5922 69.0713 42.1714 69.606 43.0626L85.9142 67.926C87.4292 70.243 88.5432 71.7579 89.2561 72.4709C89.969 73.1838 91.1275 73.5403 92.7316 73.5403ZM70.408 125.005C72.1012 125.005 73.3043 124.648 74.0173 123.935C74.8193 123.133 75.2203 121.886 75.2203 120.193V73.1393L83.1071 87.7097C83.9091 89.2247 84.8448 90.3386 85.9142 91.0516C87.0727 91.6754 88.4986 91.9873 90.1918 91.9873H95.5388C97.232 91.9873 98.6133 91.6754 99.6827 91.0516C100.841 90.3386 101.821 89.2247 102.623 87.7097L110.51 73.1393V120.193C110.51 121.886 110.867 123.133 111.58 123.935C112.382 124.648 113.629 125.005 115.323 125.005H135.908C137.602 125.005 138.805 124.648 139.518 123.935C140.32 123.133 140.721 121.886 140.721 120.193V33.5717C140.721 31.8785 140.32 30.6755 139.518 29.9625C138.805 29.1605 137.602 28.7595 135.908 28.7595H114.253C112.827 28.7595 111.624 29.0714 110.644 29.6952C109.753 30.319 108.906 31.3438 108.104 32.7697L96.2071 54.5586C95.7616 55.3606 95.3605 55.9399 95.0041 56.2963C94.7367 56.6528 94.3357 56.831 93.801 56.831H92.5979C92.0632 56.831 91.6177 56.6528 91.2612 56.2963C90.9939 55.9399 90.6374 55.3606 90.1918 54.5586L78.1611 32.7697C77.3591 31.3438 76.4679 30.319 75.4877 29.6952C74.5965 29.0714 73.438 28.7595 72.0121 28.7595H50.4906C48.7974 28.7595 47.5498 29.1605 46.7477 29.9625C46.0348 30.6755 45.6784 31.8785 45.6784 33.5717V120.193C45.6784 121.886 46.0348 123.133 46.7477 123.935C47.5498 124.648 48.7974 125.005 50.4906 125.005H70.408ZM74.6856 125.138L57.308 139.575C56.9515 139.932 56.3723 140.244 55.5702 140.511C54.8573 140.778 54.0553 140.912 53.1641 140.912H33.2467C31.1079 140.912 29.5483 140.422 28.5681 139.442C27.5878 138.461 27.0977 136.902 27.0977 134.763V48.1422C27.0977 46.9837 27.2313 46.0034 27.4987 45.2014C27.8551 44.3993 28.3453 43.731 28.9691 43.1963L46.213 28.6258C46.6586 28.2693 47.2379 28.002 47.9508 27.8237C48.7528 27.5564 49.5995 27.4227 50.4906 27.4227H72.0121C73.7053 27.4227 75.0866 27.7792 76.156 28.4921C77.3145 29.205 78.3839 30.4081 79.3642 32.1013L88.454 48.8106L89.6571 46.6718C90.0136 46.048 90.37 45.4687 90.7265 44.934C91.1721 44.3102 91.6177 43.8201 92.0632 43.4636L109.307 29.0268C110.02 28.4921 110.733 28.0911 111.446 27.8237C112.248 27.5564 113.184 27.4227 114.253 27.4227H135.908C138.047 27.4227 139.607 27.9129 140.587 28.8931C141.567 29.8734 142.057 31.433 142.057 33.5717V120.193C142.057 121.351 141.879 122.331 141.523 123.133C141.255 123.935 140.81 124.604 140.186 125.138L122.808 139.575C122.452 139.932 121.873 140.244 121.071 140.511C120.358 140.778 119.556 140.912 118.664 140.912H98.0786C95.8507 140.912 94.2466 140.422 93.2663 139.442C92.3751 138.461 91.9296 136.902 91.9296 134.763V99.473L84.0428 106.023C83.3299 106.647 82.4833 107.137 81.503 107.493C80.6118 107.761 79.5424 107.895 78.2948 107.895H76.5571V120.193C76.5571 121.351 76.3788 122.331 76.0224 123.133C75.755 123.935 75.3094 124.604 74.6856 125.138Z"/>
<path fill="white" d="M186.065 84.5015V88.6454H238.198V84.5015C238.198 82.0954 237.975 79.8675 237.53 77.8178C237.173 75.7682 236.683 73.8522 236.059 72.0699L226.836 50.281C225.856 47.964 224.831 46.048 223.761 44.533C222.692 42.9289 220.91 42.1269 218.414 42.1269H205.314C202.641 42.1269 200.769 42.9289 199.7 44.533C198.631 46.048 197.65 47.9194 196.759 50.1473L188.204 72.0699C187.58 73.8522 187.046 75.7682 186.6 77.8178C186.244 79.8675 186.065 82.0954 186.065 84.5015ZM207.453 56.831C207.81 56.029 208.166 55.4497 208.523 55.0933C208.968 54.7368 209.458 54.5586 209.993 54.5586H213.335C213.87 54.5586 214.315 54.7368 214.672 55.0933C215.117 55.4497 215.518 56.029 215.875 56.831L222.157 77.1495H201.17L207.453 56.831ZM238.198 112.974V89.9822H186.065V112.974H184.729V84.5015C184.729 82.0063 184.907 79.7338 185.263 77.6842C185.709 75.5454 186.288 73.4957 187.001 71.5352L195.556 49.6126C196.536 47.1174 197.65 45.0231 198.898 43.3299C200.146 41.6367 202.284 40.7901 205.314 40.7901H218.414C221.355 40.7901 223.405 41.6367 224.563 43.3299C225.811 45.0231 226.97 47.1619 228.039 49.7463L237.262 71.5352C237.975 73.4957 238.51 75.5454 238.867 77.6842C239.312 79.7338 239.535 82.0063 239.535 84.5015V112.974H238.198ZM199.834 120.193V101.478H223.494V120.193C223.494 121.886 223.895 123.133 224.697 123.935C225.588 124.648 226.925 125.005 228.707 125.005H248.892C250.585 125.005 251.788 124.648 252.501 123.935C253.303 123.133 253.704 121.886 253.704 120.193V84.9026C253.704 82.2291 253.259 79.1546 252.368 75.6791C251.566 72.2035 250.273 68.1488 248.491 63.5147L236.861 33.1707C236.327 31.6557 235.48 30.5418 234.322 29.8289C233.252 29.1159 231.871 28.7595 230.178 28.7595H194.219C192.437 28.7595 190.967 29.1159 189.808 29.8289C188.739 30.5418 187.937 31.6557 187.402 33.1707L175.772 63.5147C173.99 68.1488 172.653 72.2035 171.762 75.6791C170.96 79.1546 170.559 82.2291 170.559 84.9026V120.193C170.559 121.886 170.916 123.133 171.629 123.935C172.431 124.648 173.678 125.005 175.371 125.005H195.021C196.715 125.005 197.918 124.648 198.631 123.935C199.433 123.133 199.834 121.886 199.834 120.193ZM181.921 139.575C181.565 139.932 180.986 140.244 180.184 140.511C179.471 140.778 178.669 140.912 177.778 140.912H158.127C155.989 140.912 154.429 140.422 153.449 139.442C152.469 138.461 151.978 136.902 151.978 134.763V99.473C151.978 96.7104 152.379 93.5914 153.182 90.1158C154.073 86.5512 155.454 82.3628 157.325 77.5505L168.821 47.3402C169.089 46.5381 169.401 45.8697 169.757 45.3351C170.203 44.7112 170.648 44.1765 171.094 43.731L171.228 43.5973L188.338 29.2942C189.051 28.6704 189.897 28.2248 190.878 27.9574C191.858 27.601 192.972 27.4227 194.219 27.4227H230.178C232.227 27.4227 233.876 27.8683 235.124 28.7595C236.46 29.5615 237.441 30.8537 238.065 32.636L249.694 62.98C251.566 67.7923 252.902 71.9807 253.704 75.5454C254.596 79.0209 255.041 82.14 255.041 84.9026V120.193C255.041 121.351 254.863 122.331 254.506 123.133C254.239 123.935 253.794 124.604 253.17 125.138L235.792 139.575C235.436 139.932 234.856 140.244 234.054 140.511C233.341 140.778 232.539 140.912 231.648 140.912H211.463C209.235 140.912 207.587 140.377 206.517 139.308C205.448 138.328 204.913 136.813 204.913 134.763V117.385H201.17V120.193C201.17 121.351 200.992 122.331 200.636 123.133C200.368 123.935 199.923 124.604 199.299 125.138L181.921 139.575Z"/>
<path fill="white" d="M297.961 106.959V112.974H296.624V106.959C296.624 104.998 296.669 103.171 296.758 101.478C296.936 99.6958 297.56 98.0917 298.629 96.6659L314.67 74.7433L298.629 53.0881C297.649 51.6623 297.07 50.1028 296.892 48.4096C296.713 46.6272 296.624 44.7558 296.624 42.7952V40.7901H297.961V42.7952C297.961 44.6667 298.05 46.449 298.228 48.1422C298.407 49.8354 298.941 51.3058 299.832 52.5534L315.873 74.2086H331.78L347.287 52.5534C348.178 51.3058 348.713 49.8354 348.891 48.1422C349.069 46.449 349.158 44.6667 349.158 42.7952V40.7901H350.495V42.7952C350.495 44.7558 350.406 46.6272 350.228 48.4096C350.049 50.1028 349.47 51.6623 348.49 53.0881L332.716 75.0107L348.49 96.6659C349.47 98.0917 350.049 99.6958 350.228 101.478C350.406 103.171 350.495 104.998 350.495 106.959V112.974H349.158V106.959C349.158 105.087 349.069 103.305 348.891 101.612C348.713 99.9186 348.178 98.4482 347.287 97.2006L331.647 75.5454H315.606L299.832 97.2006C298.941 98.3591 298.407 99.8295 298.228 101.612C298.05 103.305 297.961 105.087 297.961 106.959ZM312.264 120.193V106.959C312.264 106.068 312.309 105.132 312.398 104.152C312.487 103.171 312.843 102.236 313.467 101.344L319.482 92.923C320.017 92.121 320.507 91.5417 320.953 91.1852C321.398 90.8288 321.978 90.6506 322.691 90.6506H324.562C325.275 90.6506 325.854 90.8288 326.3 91.1852C326.745 91.5417 327.236 92.121 327.77 92.923L333.652 101.344C334.276 102.236 334.632 103.171 334.721 104.152C334.81 105.132 334.855 106.068 334.855 106.959V120.193C334.855 121.886 335.211 123.133 335.924 123.935C336.726 124.648 337.974 125.005 339.667 125.005H359.986C361.679 125.005 362.882 124.648 363.595 123.935C364.397 123.133 364.798 121.886 364.798 120.193V105.889C364.798 101.79 364.441 98.7155 363.729 96.6659C363.105 94.6162 361.768 92.2101 359.718 89.4475L348.891 75.0107L359.718 60.3065C361.679 57.5439 363.016 55.1378 363.729 53.0881C364.441 51.0385 364.798 47.964 364.798 43.8646V33.5717C364.798 31.8785 364.397 30.6755 363.595 29.9625C362.882 29.1605 361.679 28.7595 359.986 28.7595H339.667C337.974 28.7595 336.726 29.1605 335.924 29.9625C335.211 30.6755 334.855 31.8785 334.855 33.5717V42.7952C334.855 43.6864 334.81 44.6221 334.721 45.6024C334.632 46.5827 334.276 47.5184 333.652 48.4096L327.637 56.831C327.102 57.5439 326.612 58.1232 326.166 58.5688C325.721 58.9252 325.141 59.1035 324.428 59.1035H322.824C322.111 59.1035 321.488 58.9252 320.953 58.5688C320.507 58.1232 320.062 57.5439 319.616 56.831L313.734 48.4096C313.111 47.5184 312.754 46.5827 312.665 45.6024C312.576 44.6221 312.531 43.6864 312.531 42.7952V33.5717C312.531 31.8785 312.13 30.6755 311.328 29.9625C310.615 29.1605 309.412 28.7595 307.719 28.7595H287.133C285.44 28.7595 284.193 29.1605 283.39 29.9625C282.678 30.6755 282.321 31.8785 282.321 33.5717V43.8646C282.321 47.964 282.633 51.0385 283.257 53.0881C283.97 55.1378 285.351 57.5439 287.401 60.3065L298.228 74.877L287.401 89.4475C285.44 92.2101 284.103 94.6162 283.39 96.6659C282.678 98.7155 282.321 101.79 282.321 105.889V120.193C282.321 121.886 282.678 123.133 283.39 123.935C284.193 124.648 285.44 125.005 287.133 125.005H307.452C309.145 125.005 310.348 124.648 311.061 123.935C311.863 123.133 312.264 121.886 312.264 120.193ZM311.729 125.138L294.352 139.575C293.995 139.932 293.416 140.244 292.614 140.511C291.901 140.778 291.099 140.912 290.208 140.912H269.889C267.751 140.912 266.191 140.422 265.211 139.442C264.231 138.461 263.74 136.902 263.74 134.763V120.46C263.74 116.093 264.097 112.84 264.81 110.702C265.523 108.563 266.949 106.068 269.087 103.216L279.38 89.4475L269.087 75.6791C266.949 72.8273 265.523 70.3321 264.81 68.1933C264.097 66.0545 263.74 62.8018 263.74 58.4351V48.1422C263.74 46.9837 263.874 46.0034 264.141 45.2014C264.498 44.3993 264.988 43.731 265.612 43.1963L282.856 28.6258C283.301 28.2693 283.881 28.002 284.594 27.8237C285.396 27.5564 286.242 27.4227 287.133 27.4227H307.719C309.858 27.4227 311.417 27.9129 312.398 28.8931C313.378 29.8734 313.868 31.433 313.868 33.5717V42.7952C313.868 43.5973 313.868 44.4439 313.868 45.3351C313.957 46.1371 314.269 46.8946 314.804 47.6075L316.274 49.7463V48.1422C316.274 46.9837 316.408 46.0034 316.675 45.2014C317.032 44.3993 317.522 43.731 318.146 43.1963L335.39 28.6258C335.835 28.2693 336.414 28.002 337.127 27.8237C337.929 27.5564 338.776 27.4227 339.667 27.4227H359.986C362.124 27.4227 363.684 27.9129 364.664 28.8931C365.645 29.8734 366.135 31.433 366.135 33.5717V43.8646C366.135 48.2313 365.778 51.4841 365.065 53.6228C364.352 55.7616 362.927 58.2569 360.788 61.1086L350.495 75.0107L360.788 88.6454C362.927 91.4971 364.352 93.9924 365.065 96.1312C365.778 98.27 366.135 101.523 366.135 105.889V120.193C366.135 121.351 365.956 122.331 365.6 123.133C365.333 123.935 364.887 124.604 364.263 125.138L346.886 139.575C346.529 139.932 345.95 140.244 345.148 140.511C344.435 140.778 343.633 140.912 342.742 140.912H322.423C320.285 140.912 318.725 140.422 317.745 139.442C316.764 138.461 316.274 136.902 316.274 134.763V121.529C316.274 120.727 316.23 119.925 316.141 119.123C316.141 118.321 315.873 117.519 315.339 116.717L313.601 114.311V120.193C313.601 121.351 313.423 122.331 313.066 123.133C312.799 123.935 312.353 124.604 311.729 125.138Z"/>
<path fill="white" d="M444.991 140.912H382.966C380.827 140.912 379.268 140.422 378.288 139.442C377.307 138.461 376.817 136.902 376.817 134.763V48.1422C376.817 46.9837 376.951 46.0034 377.218 45.2014C377.575 44.3993 378.065 43.731 378.689 43.1963L395.933 28.6258C396.378 28.2693 396.957 28.002 397.67 27.8237C398.472 27.5564 399.319 27.4227 400.21 27.4227H462.235C464.374 27.4227 465.933 27.9129 466.913 28.8931C467.894 29.8734 468.384 31.433 468.384 33.5717V49.2116C468.384 50.3701 468.206 51.3504 467.849 52.1524C467.582 52.9545 467.136 53.6228 466.512 54.1575L455.016 63.6484C455.908 64.094 456.531 64.7623 456.888 65.6535C457.333 66.5447 457.556 67.7032 457.556 69.129V83.4321C457.556 84.5907 457.378 85.5709 457.022 86.373C456.754 87.175 456.309 87.8434 455.685 88.3781L443.788 98.4036H462.235C464.374 98.4036 465.933 98.8938 466.913 99.8741C467.894 100.854 468.384 102.414 468.384 104.553V120.193C468.384 121.351 468.206 122.331 467.849 123.133C467.582 123.935 467.136 124.604 466.512 125.138L449.135 139.575C448.778 139.932 448.199 140.244 447.397 140.511C446.684 140.778 445.882 140.912 444.991 140.912ZM462.235 125.005C463.928 125.005 465.131 124.648 465.844 123.935C466.646 123.133 467.047 121.886 467.047 120.193V104.553C467.047 102.859 466.646 101.656 465.844 100.943C465.131 100.141 463.928 99.7404 462.235 99.7404H425.341V88.2444H451.407C453.1 88.2444 454.304 87.888 455.016 87.175C455.818 86.373 456.22 85.1254 456.22 83.4321V69.129C456.22 67.4358 455.818 66.2328 455.016 65.5198C454.304 64.7178 453.1 64.3168 451.407 64.3168H425.341V54.0239H462.235C463.928 54.0239 465.131 53.6674 465.844 52.9545C466.646 52.1524 467.047 50.9048 467.047 49.2116V33.5717C467.047 31.8785 466.646 30.6755 465.844 29.9625C465.131 29.1605 463.928 28.7595 462.235 28.7595H400.21C398.517 28.7595 397.269 29.1605 396.467 29.9625C395.754 30.6755 395.398 31.8785 395.398 33.5717V120.193C395.398 121.886 395.754 123.133 396.467 123.935C397.269 124.648 398.517 125.005 400.21 125.005H462.235ZM455.016 111.637V112.974H409.968V40.7901H455.016V42.1269H411.305V75.6791H444.189V77.0158H411.305V111.637H455.016Z"/>
<path fill="white" d="M513.821 41.8595L563.013 97.2006V40.7901H564.349V112.974H563.013V99.2057L512.484 42.5279C512.395 42.4388 512.261 42.3497 512.083 42.2605C511.994 42.1714 511.905 42.1269 511.815 42.1269C511.726 42.1269 511.637 42.1714 511.548 42.2605C511.548 42.3497 511.548 42.4388 511.548 42.5279V112.974H510.211V42.2605C510.211 41.7259 510.39 41.3248 510.746 41.0575C511.102 40.7901 511.459 40.6565 511.815 40.6565C512.172 40.6565 512.484 40.7456 512.751 40.9238C513.018 41.102 513.375 41.4139 513.821 41.8595ZM521.039 125.005C522.732 125.005 523.935 124.648 524.648 123.935C525.45 123.133 525.851 121.886 525.851 120.193V76.0801L548.709 103.751V120.193C548.709 121.886 549.066 123.133 549.779 123.935C550.581 124.648 551.828 125.005 553.522 125.005H573.573C575.266 125.005 576.469 124.648 577.182 123.935C577.984 123.133 578.385 121.886 578.385 120.193V33.5717C578.385 31.8785 577.984 30.6755 577.182 29.9625C576.469 29.1605 575.266 28.7595 573.573 28.7595H553.522C551.828 28.7595 550.581 29.1605 549.779 29.9625C549.066 30.6755 548.709 31.8785 548.709 33.5717V62.0443L522.777 32.3687C521.618 31.0319 520.415 30.0962 519.167 29.5615C518.009 29.0268 516.583 28.7595 514.89 28.7595H500.988C499.295 28.7595 498.047 29.1605 497.245 29.9625C496.532 30.6755 496.176 31.8785 496.176 33.5717V120.193C496.176 121.886 496.532 123.133 497.245 123.935C498.047 124.648 499.295 125.005 500.988 125.005H521.039ZM525.316 125.138L507.939 139.575C507.582 139.932 507.003 140.244 506.201 140.511C505.488 140.778 504.686 140.912 503.795 140.912H483.744C481.605 140.912 480.046 140.422 479.065 139.442C478.085 138.461 477.595 136.902 477.595 134.763V48.1422C477.595 46.9837 477.729 46.0034 477.996 45.2014C478.352 44.3993 478.842 43.731 479.466 43.1963L496.71 28.6258C497.156 28.2693 497.735 28.002 498.448 27.8237C499.25 27.5564 500.097 27.4227 500.988 27.4227H514.89C516.85 27.4227 518.499 27.7346 519.836 28.3584C521.173 28.9823 522.509 30.0071 523.846 31.4329L533.07 42.1269L549.244 28.6258C549.69 28.2693 550.269 28.002 550.982 27.8237C551.784 27.5564 552.631 27.4227 553.522 27.4227H573.573C575.712 27.4227 577.271 27.9129 578.251 28.8931C579.232 29.8734 579.722 31.433 579.722 33.5717V120.193C579.722 121.351 579.544 122.331 579.187 123.133C578.92 123.935 578.474 124.604 577.85 125.138L560.473 139.575C560.116 139.932 559.537 140.244 558.735 140.511C558.022 140.778 557.22 140.912 556.329 140.912H536.278C534.139 140.912 532.579 140.422 531.599 139.442C530.619 138.461 530.129 136.902 530.129 134.763V118.856L527.188 115.247V120.193C527.188 121.351 527.01 122.331 526.653 123.133C526.386 123.935 525.94 124.604 525.316 125.138Z"/>
<path fill="white" d="M656.924 140.912H624.307C612.633 140.912 603.989 137.882 598.375 131.822C592.849 125.762 590.087 117.92 590.087 108.296V70.7331C590.087 65.8317 590.8 61.5987 592.226 58.0341C593.651 54.3803 595.746 51.3504 598.508 48.9443L615.886 34.3738C618.648 32.0568 622.169 30.319 626.446 29.1605C630.724 28.002 635.759 27.4227 641.551 27.4227H674.168C676.307 27.4227 677.866 27.9129 678.846 28.8931C679.827 29.8734 680.317 31.433 680.317 33.5717V49.7463C680.317 50.9048 680.138 51.8851 679.782 52.6871C679.515 53.4892 679.069 54.1575 678.445 54.6922L661.068 69.129C660.711 69.4855 660.132 69.7974 659.33 70.0647C658.617 70.3321 657.815 70.4658 656.924 70.4658H640.482V93.0567C640.482 94.9281 641.061 96.2649 642.22 97.0669C643.378 97.7798 645.071 98.1363 647.299 98.1363H674.168C676.307 98.1363 677.866 98.6264 678.846 99.6067C679.827 100.587 680.317 102.147 680.317 104.285V120.193C680.317 121.351 680.138 122.331 679.782 123.133C679.515 123.935 679.069 124.604 678.445 125.138L661.068 139.575C660.711 139.932 660.132 140.244 659.33 140.511C658.617 140.778 657.815 140.912 656.924 140.912ZM674.168 125.005C675.861 125.005 677.064 124.648 677.777 123.935C678.579 123.133 678.98 121.886 678.98 120.193V104.285C678.98 102.592 678.579 101.389 677.777 100.676C677.064 99.8741 675.861 99.473 674.168 99.473H647.299C644.537 99.473 642.487 98.9829 641.15 98.0026C639.814 96.9332 639.145 95.2846 639.145 93.0567V61.2423C639.145 59.0144 639.814 57.3657 641.15 56.2963C642.487 55.1378 644.537 54.5586 647.299 54.5586H674.168C675.861 54.5586 677.064 54.2021 677.777 53.4892C678.579 52.6871 678.98 51.4395 678.98 49.7463V33.5717C678.98 31.8785 678.579 30.6755 677.777 29.9625C677.064 29.1605 675.861 28.7595 674.168 28.7595H641.551C630.412 28.7595 622.124 31.0319 616.688 35.5768C611.341 40.0326 608.667 46.8946 608.667 56.1626V97.7353C608.667 107.003 611.341 113.865 616.688 118.321C622.124 122.777 630.412 125.005 641.551 125.005H674.168ZM666.816 111.637V112.974H644.492C635.848 112.974 630.1 111.637 627.248 108.964C624.486 106.29 623.104 101.879 623.104 95.7302V58.3014C623.104 51.9742 624.53 47.4738 627.382 44.8004C630.234 42.1269 635.937 40.7901 644.492 40.7901H666.816V42.1269H644.492C636.65 42.1269 631.347 43.3745 628.585 45.8697C625.822 48.2759 624.441 52.4198 624.441 58.3014V95.7302C624.441 101.523 625.778 105.622 628.451 108.028C631.125 110.434 636.472 111.637 644.492 111.637H666.816Z"/>
<path fill="white" d="M756.984 140.912H694.959C692.82 140.912 691.261 140.422 690.281 139.442C689.3 138.461 688.81 136.902 688.81 134.763V48.1422C688.81 46.9837 688.944 46.0034 689.211 45.2014C689.568 44.3993 690.058 43.731 690.682 43.1963L707.926 28.6258C708.371 28.2693 708.951 28.002 709.663 27.8237C710.465 27.5564 711.312 27.4227 712.203 27.4227H774.228C776.367 27.4227 777.926 27.9129 778.907 28.8931C779.887 29.8734 780.377 31.433 780.377 33.5717V49.2116C780.377 50.3701 780.199 51.3504 779.842 52.1524C779.575 52.9545 779.129 53.6228 778.506 54.1575L767.01 63.6484C767.901 64.094 768.525 64.7623 768.881 65.6535C769.327 66.5447 769.549 67.7032 769.549 69.129V83.4321C769.549 84.5907 769.371 85.5709 769.015 86.373C768.747 87.175 768.302 87.8434 767.678 88.3781L755.781 98.4036H774.228C776.367 98.4036 777.926 98.8938 778.907 99.8741C779.887 100.854 780.377 102.414 780.377 104.553V120.193C780.377 121.351 780.199 122.331 779.842 123.133C779.575 123.935 779.129 124.604 778.506 125.138L761.128 139.575C760.771 139.932 760.192 140.244 759.39 140.511C758.677 140.778 757.875 140.912 756.984 140.912ZM774.228 125.005C775.921 125.005 777.124 124.648 777.837 123.935C778.639 123.133 779.04 121.886 779.04 120.193V104.553C779.04 102.859 778.639 101.656 777.837 100.943C777.124 100.141 775.921 99.7404 774.228 99.7404H737.334V88.2444H763.4C765.094 88.2444 766.297 87.888 767.01 87.175C767.812 86.373 768.213 85.1254 768.213 83.4321V69.129C768.213 67.4358 767.812 66.2328 767.01 65.5198C766.297 64.7178 765.094 64.3168 763.4 64.3168H737.334V54.0239H774.228C775.921 54.0239 777.124 53.6674 777.837 52.9545C778.639 52.1524 779.04 50.9048 779.04 49.2116V33.5717C779.04 31.8785 778.639 30.6755 777.837 29.9625C777.124 29.1605 775.921 28.7595 774.228 28.7595H712.203C710.51 28.7595 709.262 29.1605 708.46 29.9625C707.747 30.6755 707.391 31.8785 707.391 33.5717V120.193C707.391 121.886 707.747 123.133 708.46 123.935C709.262 124.648 710.51 125.005 712.203 125.005H774.228ZM767.01 111.637V112.974H721.961V40.7901H767.01V42.1269H723.298V75.6791H756.182V77.0158H723.298V111.637H767.01Z"/>
</g>
<defs>
<filter color-interpolation-filters="sRGB" filterUnits="userSpaceOnUse" height="173.489" width="813.279" y="0.422729" x="0.0976562" id="filter0_d_373_1323">
<feFlood result="BackgroundImageFix" flood-opacity="0"/>
<feColorMatrix result="hardAlpha" values="0 0 0 0 0 0 0 0 0 0 0 0 0 0 0 0 0 0 127 0" type="matrix" in="SourceAlpha"/>
<feOffset dy="3" dx="3"/>
<feGaussianBlur stdDeviation="15"/>
<feComposite operator="out" in2="hardAlpha"/>
<feColorMatrix values="0 0 0 0 0 0 0 0 0 0 0 0 0 0 0 0 0 0 0.5 0" type="matrix"/>
<feBlend result="effect1_dropShadow_373_1323" in2="BackgroundImageFix" mode="normal"/>
<feBlend result="shape" in2="effect1_dropShadow_373_1323" in="SourceGraphic" mode="normal"/>
</filter>
<filter color-interpolation-filters="sRGB" filterUnits="userSpaceOnUse" height="173.489" width="813.279" y="0.422729" x="0.0976562" id="filter1_d_373_1323">
<feFlood result="BackgroundImageFix" flood-opacity="0"/>
<feColorMatrix result="hardAlpha" values="0 0 0 0 0 0 0 0 0 0 0 0 0 0 0 0 0 0 127 0" type="matrix" in="SourceAlpha"/>
<feOffset dy="3" dx="3"/>
<feGaussianBlur stdDeviation="15"/>
<feComposite operator="out" in2="hardAlpha"/>
<feColorMatrix values="0 0 0 0 0 0 0 0 0 0 0 0 0 0 0 0 0 0 0.5 0" type="matrix"/>
<feBlend result="effect1_dropShadow_373_1323" in2="BackgroundImageFix" mode="normal"/>
<feBlend result="shape" in2="effect1_dropShadow_373_1323" in="SourceGraphic" mode="normal"/>
</filter>
<linearGradient gradientUnits="userSpaceOnUse" y2="2.75373" x2="764.213" y1="73.3175" x1="32.8902" id="paint0_linear_373_1323">
<stop stop-color="#992D8B"/>
<stop stop-color="#FF4BE7" offset="1"/>
</linearGradient>
<linearGradient gradientUnits="userSpaceOnUse" y2="2.75373" x2="764.213" y1="73.3175" x1="32.8902" id="paint1_linear_373_1323">
<stop stop-color="#992D8B"/>
<stop stop-color="#FF4BE7" offset="1"/>
</linearGradient>
<linearGradient gradientUnits="userSpaceOnUse" y2="2.75373" x2="764.213" y1="73.3175" x1="32.8902" id="paint2_linear_373_1323">
<stop stop-color="#992D8B"/>
<stop stop-color="#FF4BE7" offset="1"/>
</linearGradient>
<linearGradient gradientUnits="userSpaceOnUse" y2="2.75373" x2="764.213" y1="73.3175" x1="32.8902" id="paint3_linear_373_1323">
<stop stop-color="#992D8B"/>
<stop stop-color="#FF4BE7" offset="1"/>
</linearGradient>
<linearGradient gradientUnits="userSpaceOnUse" y2="2.75373" x2="764.213" y1="73.3175" x1="32.8902" id="paint4_linear_373_1323">
<stop stop-color="#992D8B"/>
<stop stop-color="#FF4BE7" offset="1"/>
</linearGradient>
<linearGradient gradientUnits="userSpaceOnUse" y2="2.75373" x2="764.213" y1="73.3175" x1="32.8902" id="paint5_linear_373_1323">
<stop stop-color="#992D8B"/>
<stop stop-color="#FF4BE7" offset="1"/>
</linearGradient>
<linearGradient gradientUnits="userSpaceOnUse" y2="2.75373" x2="764.213" y1="73.3175" x1="32.8902" id="paint6_linear_373_1323">
<stop stop-color="#992D8B"/>
<stop stop-color="#FF4BE7" offset="1"/>
</linearGradient>
<linearGradient gradientUnits="userSpaceOnUse" y2="2.75373" x2="764.213" y1="73.3175" x1="32.8902" id="paint7_linear_373_1323">
<stop stop-color="#992D8B"/>
<stop stop-color="#FF4BE7" offset="1"/>
</linearGradient>
<linearGradient gradientUnits="userSpaceOnUse" y2="2.75373" x2="764.213" y1="73.3175" x1="32.8902" id="paint8_linear_373_1323">
<stop stop-color="#992D8B"/>
<stop stop-color="#FF4BE7" offset="1"/>
</linearGradient>
<linearGradient gradientUnits="userSpaceOnUse" y2="2.75373" x2="764.213" y1="73.3175" x1="32.8902" id="paint9_linear_373_1323">
<stop stop-color="#992D8B"/>
<stop stop-color="#FF4BE7" offset="1"/>
</linearGradient>
<linearGradient gradientUnits="userSpaceOnUse" y2="2.75373" x2="764.213" y1="73.3175" x1="32.8902" id="paint10_linear_373_1323">
<stop stop-color="#992D8B"/>
<stop stop-color="#FF4BE7" offset="1"/>
</linearGradient>
<linearGradient gradientUnits="userSpaceOnUse" y2="2.75373" x2="764.213" y1="73.3175" x1="32.8902" id="paint11_linear_373_1323">
<stop stop-color="#992D8B"/>
<stop stop-color="#FF4BE7" offset="1"/>
</linearGradient>
<linearGradient gradientUnits="userSpaceOnUse" y2="2.75373" x2="764.213" y1="73.3175" x1="32.8902" id="paint12_linear_373_1323">
<stop stop-color="#992D8B"/>
<stop stop-color="#FF4BE7" offset="1"/>
</linearGradient>
<linearGradient gradientUnits="userSpaceOnUse" y2="2.75373" x2="764.213" y1="73.3175" x1="32.8902" id="paint13_linear_373_1323">
<stop stop-color="#992D8B"/>
<stop stop-color="#FF4BE7" offset="1"/>
</linearGradient>
<linearGradient gradientUnits="userSpaceOnUse" y2="2.75373" x2="764.213" y1="73.3175" x1="32.8902" id="paint14_linear_373_1323">
<stop stop-color="#992D8B"/>
<stop stop-color="#FF4BE7" offset="1"/>
</linearGradient>
<linearGradient gradientUnits="userSpaceOnUse" y2="2.75373" x2="764.213" y1="73.3175" x1="32.8902" id="paint15_linear_373_1323">
<stop stop-color="#992D8B"/>
<stop stop-color="#FF4BE7" offset="1"/>
</linearGradient>
<linearGradient gradientUnits="userSpaceOnUse" y2="2.75373" x2="764.213" y1="73.3175" x1="32.8902" id="paint16_linear_373_1323">
<stop stop-color="#992D8B"/>
<stop stop-color="#FF4BE7" offset="1"/>
</linearGradient>
<linearGradient gradientUnits="userSpaceOnUse" y2="2.75373" x2="764.213" y1="73.3175" x1="32.8902" id="paint17_linear_373_1323">
<stop stop-color="#992D8B"/>
<stop stop-color="#FF4BE7" offset="1"/>
</linearGradient>
<linearGradient gradientUnits="userSpaceOnUse" y2="2.75373" x2="764.213" y1="73.3175" x1="32.8902" id="paint18_linear_373_1323">
<stop stop-color="#992D8B"/>
<stop stop-color="#FF4BE7" offset="1"/>
</linearGradient>
</defs>
</svg>